<svg width="65" height="64" viewBox="0 0 65 64" fill="none" xmlns="http://www.w3.org/2000/svg">
<mask id="mask0_1897_10638" style="mask-type:alpha" maskUnits="userSpaceOnUse" x="3" y="3" width="59" height="58">
<circle cx="32.5012" cy="32.0002" r="28.8" fill="#5452F6"/>
<circle cx="32.5012" cy="32.0002" r="28.8" fill="#5452F6"/>
</mask>
<g mask="url(#mask0_1897_10638)">
<rect x="-39.1074" y="-13.9746" width="137.501" height="135.652" fill="#E3ECF8"/>
<path d="M24.8326 35.7969L20.2081 50.9035L18.8516 54.4182C18.8516 54.4182 20.8247 56.9462 25.5108 57.9328C28.7171 58.611 30.8752 58.6727 32.2934 58.5494C33.465 58.426 34.8831 58.1794 34.1432 56.0213C33.095 52.815 33.4649 50.7802 33.4649 50.7802L35.1298 41.7162L24.8326 35.7969Z" fill="#EA9D7D"/>
<path d="M24.0949 43.936C25.5988 46.0569 27.5854 47.7899 29.8909 48.9921C32.049 50.0403 33.5905 50.2869 33.5905 50.2869L34.947 42.7644L24.8348 35.7969L24.2799 36.8451L23.8482 38.5716C23.7866 38.6332 22.6767 41.7779 24.0949 43.936Z" fill="url(#paint0_linear_1897_10638)"/>
<path d="M42.2801 25.0703C42.2801 25.0703 42.4034 33.0245 41.7868 36.5391C41.1702 40.0537 39.5054 42.1501 37.5323 42.7667C35.5592 43.3833 31.9829 42.0885 29.5782 40.8553C27.5434 39.8071 26.3719 38.6972 26.0636 37.4023C25.7553 36.0458 25.1387 34.3193 25.1387 34.3193L25.262 30.3114L30.0098 20.1992L42.2801 25.0703Z" fill="#EA9D7D"/>
<path d="M27.2988 30.9269C27.2988 30.9269 30.5668 27.474 32.9099 26.7341C35.6229 25.8708 39.8158 25.8708 39.8158 25.8708L30.0119 20.2598L27.2988 30.9269Z" fill="url(#paint1_linear_1897_10638)"/>
<path d="M26.9881 17.7328C26.9881 17.7328 23.5968 17.1162 21.0688 19.2743C18.6024 21.4324 18.7873 24.4537 19.5273 26.9201C20.0618 28.611 20.7213 30.2598 21.5004 31.8529C21.5004 31.8529 23.5968 33.9493 25.5083 32.7778C27.4814 31.6063 30.0711 28.8316 30.2561 25.6869C30.4411 22.4806 30.1328 21.679 30.4411 21.5557C30.7494 21.4324 33.3391 24.5154 37.347 25.6869C41.3549 26.8584 43.8829 26.6118 44.5612 25.6869C45.3011 24.762 43.6363 19.2743 41.3549 16.3763C39.0734 13.4783 35.0655 13.1083 32.9075 13.4783C30.811 13.9099 28.2213 14.7731 26.9881 17.7328Z" fill="url(#paint2_linear_1897_10638)"/>
<path d="M23.7816 37.1554C25.5865 37.1554 27.0496 35.5819 27.0496 33.6408C27.0496 31.6998 25.5865 30.1262 23.7816 30.1262C21.9768 30.1262 20.5137 31.6998 20.5137 33.6408C20.5137 35.5819 21.9768 37.1554 23.7816 37.1554Z" fill="#EA9D7D"/>
<path d="M19.2232 54.5435H19.1615C19.0382 54.4818 18.9766 54.3585 18.9766 54.2352L21.8746 45.3562C22.4295 43.5064 24.0943 37.2787 24.0943 37.2787C24.156 37.1554 24.2793 37.0938 24.4026 37.0938C24.526 37.1554 24.5876 37.2787 24.5876 37.402L22.3679 45.4795C21.8746 47.1443 19.4698 54.2969 19.4698 54.2969C19.4698 54.4818 19.3465 54.5435 19.2232 54.5435Z" fill="#CF7653"/>
<path d="M23.7911 37.4014C21.818 37.4014 20.2148 35.6749 20.2148 33.6402C20.2148 31.5437 21.818 29.8789 23.7911 29.8789C25.7642 29.8789 27.3674 31.6054 27.3674 33.6402C27.3674 35.7366 25.7642 37.4014 23.7911 37.4014ZM23.7911 30.3722C22.1263 30.3722 20.7698 31.852 20.7698 33.6402C20.7698 35.4283 22.1263 36.9081 23.7911 36.9081C25.4559 36.9081 26.8124 35.4283 26.8124 33.6402C26.8124 31.852 25.4559 30.3722 23.7911 30.3722Z" fill="#B76349"/>
<path d="M23.9653 35.1822C24.7821 35.1822 25.4442 34.4925 25.4442 33.6416C25.4442 32.7908 24.7821 32.1011 23.9653 32.1011C23.1485 32.1011 22.4863 32.7908 22.4863 33.6416C22.4863 34.4925 23.1485 35.1822 23.9653 35.1822Z" fill="url(#paint3_linear_1897_10638)"/>
<path d="M27.3627 31.4199L26.3144 32.3448L25.8828 35.7978L26.0678 36.7843C26.0678 36.7843 27.5476 35.9828 27.671 34.3796C27.7943 32.8381 27.3627 31.4199 27.3627 31.4199Z" fill="#EA9D7D"/>
<path d="M35.4994 43.0752C34.8211 43.0752 34.2662 42.9519 33.033 42.6436C30.7557 41.9744 28.6516 40.8171 26.867 39.2523C25.5105 37.8958 25.6338 36.6009 25.6338 36.5393C25.6338 36.4159 25.6338 36.231 25.7571 36.231C25.8804 36.231 25.9421 36.3543 26.0037 36.4776C26.0654 36.7242 26.0654 37.7725 27.1753 38.8823C28.8914 40.3832 30.9101 41.4977 33.0946 42.1503C35.0061 42.5819 35.376 42.7052 36.7942 42.5819C38.1507 42.4586 38.9523 41.9037 38.9523 41.9037C39.1373 41.7803 39.3223 41.7187 39.1989 41.9037C39.0756 42.027 38.0891 42.8286 36.8559 43.0135C36.2393 43.0135 35.8693 43.0752 35.4994 43.0752Z" fill="#B76349"/>
<path d="M32.2954 29.3238C32.2338 29.3238 32.1105 29.3238 32.0488 29.2621C31.8638 29.1388 31.8022 28.8305 31.9255 28.6455C31.9871 28.5838 32.9737 27.104 35.1935 27.289C35.4401 27.289 35.6251 27.5356 35.6251 27.7823C35.6251 28.0289 35.3784 28.2139 35.1318 28.2139C33.467 28.0906 32.7271 29.1388 32.7271 29.2004C32.5421 29.2621 32.4188 29.3238 32.2954 29.3238ZM41.4211 28.0289C41.3595 28.0289 41.2361 28.0289 41.1745 27.9672C40.6812 27.5973 39.9413 27.8439 39.8796 27.8439C39.633 27.9056 39.3863 27.7823 39.3247 27.5356C39.263 27.289 39.3863 27.0423 39.633 26.9807C39.6946 26.9807 40.8045 26.6107 41.6677 27.2273C41.8527 27.3506 41.9144 27.6589 41.7911 27.8439C41.7294 27.9672 41.5444 28.0289 41.4211 28.0289Z" fill="#B76349"/>
<path d="M34.5209 32.2833C34.9974 32.2833 35.3836 31.897 35.3836 31.4206C35.3836 30.9441 34.9974 30.5579 34.5209 30.5579C34.0445 30.5579 33.6582 30.9441 33.6582 31.4206C33.6582 31.897 34.0445 32.2833 34.5209 32.2833Z" fill="#4F2B23"/>
<path d="M40.9369 31.7904C41.4134 31.7904 41.7997 31.4041 41.7997 30.9277C41.7997 30.4512 41.4134 30.0649 40.9369 30.0649C40.4605 30.0649 40.0742 30.4512 40.0742 30.9277C40.0742 31.4041 40.4605 31.7904 40.9369 31.7904Z" fill="#4F2B23"/>
<path d="M38.092 36.6625C37.907 36.6625 37.722 36.5391 37.6604 36.2925C37.5987 36.0459 37.7837 35.7992 38.0304 35.7992C38.0304 35.7992 38.7086 35.6759 38.7703 35.121C38.8319 34.566 38.277 33.0245 37.9687 32.2229C37.8454 31.9763 37.9687 31.7297 38.2153 31.668C38.462 31.5447 38.7086 31.668 38.7703 31.9146C38.8936 32.1613 39.6952 34.2577 39.6335 35.2443C39.5718 36.1692 38.7086 36.6625 38.2153 36.7241C38.1537 36.6625 38.092 36.6625 38.092 36.6625Z" fill="#B4603F"/>
<path d="M35.7502 39.0019C34.9416 38.9942 34.1571 38.7261 33.513 38.2374C32.8688 37.7487 32.3992 37.0655 32.1739 36.2889C32.1123 36.0423 32.2356 35.7956 32.4822 35.734C32.7289 35.6723 32.9755 35.7956 33.0372 36.0423C33.2098 36.6284 33.5672 37.1432 34.0561 37.5098C34.5449 37.8764 35.1391 38.0754 35.7502 38.0771C35.9968 38.0771 36.1818 38.3237 36.1818 38.5087C36.1818 38.817 35.9968 39.0019 35.7502 39.0019Z" fill="#CF7653"/>
<path d="M-22.1149 125.168C-20.0185 129.176 -3.37033 128.744 7.97508 125.106C15.2509 122.763 17.4707 116.227 17.4707 116.227L26.2881 92.735L35.722 101.244L34.6121 116.227L37.0169 116.474C37.0169 116.474 38.99 100.812 40.0999 78.6149C40.7165 66.6529 44.7244 49.1415 25.2398 48.1549C17.409 47.7233 8.77665 53.026 0.144272 70.4758C-5.34346 81.5129 -17.5521 108.335 -20.2035 114.871C-22.9165 121.407 -22.9782 123.565 -22.1149 125.168Z" fill="#504EFC"/>
<path d="M23.1147 48.5533C13.619 50.5264 7.02143 66.003 20.0317 84.2543C31.1304 99.7926 43.8324 106.637 54.7462 110.583C63.9335 113.913 75.4639 116.996 78.8552 117.859C79.4101 117.982 79.965 117.674 80.0884 117.181L85.4528 100.533C85.5761 100.163 85.3911 99.7926 85.0828 99.6076C82.3081 98.2511 70.2845 92.0851 61.0355 84.8709C52.7731 78.7666 45.6205 66.1263 42.4759 60.207C39.5162 54.1027 34.2751 46.2102 23.1147 48.5533Z" fill="#6664FD"/>
<path d="M23.1147 48.5533C13.619 50.5264 7.02143 66.003 20.0317 84.2543C31.1304 99.7926 43.8324 106.637 54.7462 110.583C63.9335 113.913 75.4639 116.996 78.8552 117.859C79.4101 117.982 79.965 117.674 80.0884 117.181L85.4528 100.533C85.5761 100.163 85.3911 99.7926 85.0828 99.6076C82.3081 98.2511 70.2845 92.0851 61.0355 84.8709C52.7731 78.7666 45.6205 66.1263 42.4759 60.207C39.5162 54.1027 34.2751 46.2102 23.1147 48.5533Z" fill="url(#paint4_radial_1897_10638)"/>
</g>
<defs>
<linearGradient id="paint0_linear_1897_10638" x1="26.7462" y1="46.2174" x2="30.9823" y2="40.7605" gradientUnits="userSpaceOnUse">
<stop stop-color="#BC5A32" stop-opacity="0"/>
<stop offset="0.99" stop-color="#BC5A32"/>
</linearGradient>
<linearGradient id="paint1_linear_1897_10638" x1="33.0949" y1="27.3322" x2="30.684" y2="21.8074" gradientUnits="userSpaceOnUse">
<stop stop-color="#BC5A32" stop-opacity="0"/>
<stop offset="0.99" stop-color="#BC5A32"/>
</linearGradient>
<linearGradient id="paint2_linear_1897_10638" x1="31.8889" y1="25.8477" x2="25.7672" y2="12.3129" gradientUnits="userSpaceOnUse">
<stop offset="0.02" stop-color="#4E201D"/>
<stop offset="1" stop-color="#833D30"/>
</linearGradient>
<linearGradient id="paint3_linear_1897_10638" x1="23.8359" y1="35.706" x2="24.0454" y2="32.4215" gradientUnits="userSpaceOnUse">
<stop stop-color="#CC7A5E" stop-opacity="0"/>
<stop offset="0.92" stop-color="#AA5F4B"/>
</linearGradient>
<radialGradient id="paint4_radial_1897_10638" cx="0" cy="0" r="1" gradientUnits="userSpaceOnUse" gradientTransform="translate(36.3864 49.8893) rotate(119.94) scale(13.2056 16.719)">
<stop stop-color="#B6B5FF"/>
<stop offset="1" stop-color="#6664FD" stop-opacity="0"/>
</radialGradient>
</defs>
</svg>
