<svg width="16" height="16" viewBox="0 0 16 16" fill="none" xmlns="http://www.w3.org/2000/svg">
<mask id="mask0_1588_10940" style="mask-type:alpha" maskUnits="userSpaceOnUse" x="0" y="0" width="16" height="16">
<path fill-rule="evenodd" clip-rule="evenodd" d="M14.5 3H1.5C1.22386 3 1 3.22386 1 3.5V12.5C1 12.7761 1.22386 13 1.5 13H14.5C14.7761 13 15 12.7761 15 12.5V3.5C15 3.22386 14.7761 3 14.5 3ZM1.5 2C0.671573 2 0 2.67157 0 3.5V12.5C0 13.3284 0.671573 14 1.5 14H14.5C15.3284 14 16 13.3284 16 12.5V3.5C16 2.67157 15.3284 2 14.5 2H1.5Z" fill="black"/>
<path fill-rule="evenodd" clip-rule="evenodd" d="M5 8C5 7.72386 5.22386 7.5 5.5 7.5H12.5C12.7761 7.5 13 7.72386 13 8C13 8.27614 12.7761 8.5 12.5 8.5H5.5C5.22386 8.5 5 8.27614 5 8Z" fill="black"/>
<path fill-rule="evenodd" clip-rule="evenodd" d="M5 5.5C5 5.22386 5.22386 5 5.5 5H12.5C12.7761 5 13 5.22386 13 5.5C13 5.77614 12.7761 6 12.5 6H5.5C5.22386 6 5 5.77614 5 5.5Z" fill="black"/>
<path fill-rule="evenodd" clip-rule="evenodd" d="M5 10.5C5 10.2239 5.22386 10 5.5 10H12.5C12.7761 10 13 10.2239 13 10.5C13 10.7761 12.7761 11 12.5 11H5.5C5.22386 11 5 10.7761 5 10.5Z" fill="black"/>
<circle cx="3.5" cy="5.5" r="0.5" fill="black"/>
<circle cx="3.5" cy="8" r="0.5" fill="black"/>
<circle cx="3.5" cy="10.5" r="0.5" fill="black"/>
</mask>
<g mask="url(#mask0_1588_10940)">
<rect width="16" height="16" fill="#425466"/>
</g>
</svg>
