<svg width="16" height="17" viewBox="0 0 16 17" fill="none" xmlns="http://www.w3.org/2000/svg">
<mask id="mask0_1588_10955" style="mask-type:alpha" maskUnits="userSpaceOnUse" x="0" y="0" width="16" height="17">
<path fill-rule="evenodd" clip-rule="evenodd" d="M8.93158 1.22715C8.68891 0.257618 7.31109 0.257616 7.06842 1.22715L6.99691 1.51288C6.81397 2.24378 5.89902 2.48894 5.37515 1.94743L5.17035 1.73574C4.47543 1.01743 3.28219 1.70634 3.55681 2.66731L3.63774 2.95052C3.84476 3.67497 3.17497 4.34476 2.45053 4.13774L2.16732 4.05681C1.20634 3.78219 0.51743 4.97542 1.23574 5.67034L1.44743 5.87514C1.98894 6.39902 1.74378 7.31397 1.01288 7.49691L0.72715 7.56842C-0.242382 7.81109 -0.242384 9.18891 0.727147 9.43158L1.01288 9.50309C1.74378 9.68603 1.98894 10.601 1.44743 11.1249L1.23574 11.3297C0.517432 12.0246 1.20634 13.2178 2.16731 12.9432L2.45052 12.8623C3.17497 12.6552 3.84476 13.325 3.63774 14.0495L3.55681 14.3327C3.28219 15.2937 4.47542 15.9826 5.17034 15.2643L5.37514 15.0526C5.89902 14.5111 6.81397 14.7562 6.99691 15.4871L7.06842 15.7729C7.31109 16.7424 8.68891 16.7424 8.93158 15.7729L9.00309 15.4871C9.18603 14.7562 10.101 14.5111 10.6249 15.0526L10.8297 15.2643C11.5246 15.9826 12.7178 15.2937 12.4432 14.3327L12.3623 14.0495C12.1552 13.325 12.825 12.6552 13.5495 12.8623L13.8327 12.9432C14.7937 13.2178 15.4826 12.0246 14.7643 11.3297L14.5526 11.1249C14.0111 10.601 14.2562 9.68603 14.9871 9.50309L15.2729 9.43158C16.2424 9.18891 16.2424 7.81109 15.2729 7.56842L14.9871 7.49691C14.2562 7.31397 14.0111 6.39902 14.5526 5.87515L14.7643 5.67035C15.4826 4.97543 14.7937 3.78219 13.8327 4.05681L13.5495 4.13774C12.825 4.34476 12.1552 3.67497 12.3623 2.95053L12.4432 2.66732C12.7178 1.70634 11.5246 1.01743 10.8297 1.73574L10.6249 1.94743C10.101 2.48894 9.18603 2.24378 9.00309 1.51288L8.93158 1.22715ZM8 13.4977C10.7601 13.4977 12.9977 11.2602 12.9977 8.50002C12.9977 5.7399 10.7601 3.50237 8 3.50237C5.23987 3.50237 3.00235 5.7399 3.00235 8.50002C3.00235 11.2602 5.23987 13.4977 8 13.4977Z" fill="black"/>
<path fill-rule="evenodd" clip-rule="evenodd" d="M7.37529 8.50002L4.6016 4.80176L5.40122 4.20204L8.24988 8.00026H12.9977V8.99979H8.24988L5.40122 12.798L4.6016 12.1983L7.37529 8.50002Z" fill="black"/>
</mask>
<g mask="url(#mask0_1588_10955)">
<rect y="0.5" width="16" height="16" fill="#425466"/>
</g>
</svg>
