<svg width="24" height="24" viewBox="0 0 24 24" fill="none" xmlns="http://www.w3.org/2000/svg">
<path fill-rule="evenodd" clip-rule="evenodd" d="M11 20C11 19.4477 10.5523 19 10 19H5V5H10C10.5523 5 11 4.55228 11 4C11 3.44771 10.5523 3 10 3H5C3.89543 3 3 3.89543 3 5V19C3 20.1046 3.89543 21 5 21H10C10.5523 21 11 20.5523 11 20Z" fill="white"/>
<path d="M21.3808 12.7599C21.4735 12.6655 21.5437 12.5574 21.5914 12.4421C21.6399 12.3251 21.6668 12.1968 21.6672 12.0623L21.6672 12.0593L21.6672 12.0563C21.6665 11.8014 21.5688 11.5467 21.3743 11.3522L17.3743 7.35222C16.9838 6.96169 16.3507 6.96169 15.9601 7.35222C15.5696 7.74274 15.5696 8.37591 15.9601 8.76643L18.253 11.0593H8.66724C8.11495 11.0593 7.66724 11.507 7.66724 12.0593C7.66724 12.6116 8.11495 13.0593 8.66724 13.0593H18.253L15.9601 15.3522C15.5696 15.7427 15.5696 16.3759 15.9601 16.7664C16.3507 17.157 16.9838 17.157 17.3743 16.7664L19.374 14.7668L21.3736 12.7671L21.3808 12.7599Z" fill="white"/>
</svg>
