<svg width="24" height="24" viewBox="0 0 24 24" fill="none" xmlns="http://www.w3.org/2000/svg">
<path fill-rule="evenodd" clip-rule="evenodd" d="M11 20C11 19.4477 10.5523 19 10 19H5V5H10C10.5523 5 11 4.55228 11 4C11 3.44771 10.5523 3 10 3H5C3.89543 3 3 3.89543 3 5V19C3 20.1046 3.89543 21 5 21H10C10.5523 21 11 20.5523 11 20Z" fill="#2F3A4E"/>
<path d="M21.3816 12.7599C21.4742 12.6655 21.5444 12.5574 21.5921 12.4421C21.6406 12.3251 21.6676 12.1968 21.668 12.0623L21.668 12.0593L21.668 12.0563C21.6672 11.8014 21.5696 11.5467 21.3751 11.3522L17.3751 7.35222C16.9846 6.96169 16.3514 6.96169 15.9609 7.35222C15.5703 7.74274 15.5703 8.37591 15.9609 8.76643L18.2538 11.0593H8.66797C8.11568 11.0593 7.66797 11.507 7.66797 12.0593C7.66797 12.6116 8.11568 13.0593 8.66797 13.0593H18.2538L15.9609 15.3522C15.5703 15.7427 15.5703 16.3759 15.9609 16.7664C16.3514 17.157 16.9846 17.157 17.3751 16.7664L19.3747 14.7668L21.3744 12.7671L21.3816 12.7599Z" fill="#2F3A4E"/>
</svg>
