<svg width="16" height="16" viewBox="0 0 16 16" fill="none" xmlns="http://www.w3.org/2000/svg">
<mask id="path-1-inside-1_1699_10309" fill="white">
<path d="M16 7.69236C16 7.69236 12.4183 12.6154 8 12.6154C3.58172 12.6154 0 7.69236 0 7.69236C0 7.69236 3.58172 2.76929 8 2.76929C12.4183 2.76929 16 7.69236 16 7.69236Z"/>
</mask>
<path d="M16 7.69236L17.213 8.57483L17.855 7.69236L17.213 6.8099L16 7.69236ZM0 7.69236L-1.21295 6.8099L-1.85498 7.69236L-1.21295 8.57483L0 7.69236ZM16 7.69236C14.787 6.8099 14.7873 6.80957 14.7875 6.80926C14.7876 6.80918 14.7878 6.80889 14.7879 6.80873C14.7881 6.80841 14.7883 6.80817 14.7884 6.808C14.7887 6.80766 14.7887 6.80761 14.7885 6.80785C14.7882 6.80832 14.787 6.80993 14.785 6.81266C14.7809 6.8181 14.7736 6.82797 14.763 6.84196C14.7418 6.86995 14.7077 6.91437 14.6614 6.97287C14.5687 7.09 14.4276 7.26273 14.2436 7.47249C13.8739 7.89403 13.3401 8.45441 12.6853 9.01108C11.3307 10.1627 9.67398 11.1154 8 11.1154V14.1154C10.7443 14.1154 13.0876 12.6067 14.6284 11.2967C15.4214 10.6226 16.0591 9.95224 16.499 9.4507C16.7198 9.19892 16.8931 8.98704 17.0136 8.83494C17.0738 8.75882 17.121 8.69747 17.1544 8.65335C17.1711 8.63128 17.1844 8.6135 17.1942 8.60032C17.1991 8.59373 17.2031 8.58828 17.2062 8.58402C17.2078 8.58189 17.2091 8.58006 17.2103 8.57852C17.2108 8.57776 17.2113 8.57707 17.2118 8.57645C17.212 8.57614 17.2123 8.57574 17.2124 8.57558C17.2127 8.5752 17.213 8.57483 16 7.69236ZM8 11.1154C6.32602 11.1154 4.66928 10.1627 3.31472 9.01108C2.65993 8.45441 2.1261 7.89403 1.75636 7.47249C1.57238 7.26273 1.43134 7.09 1.33861 6.97287C1.29231 6.91437 1.25822 6.86995 1.23701 6.84196C1.22642 6.82797 1.21905 6.8181 1.21501 6.81266C1.21299 6.80993 1.2118 6.80832 1.21146 6.80785C1.21128 6.80761 1.21132 6.80766 1.21157 6.808C1.21169 6.80817 1.21187 6.80841 1.2121 6.80873C1.21222 6.80889 1.21243 6.80918 1.21249 6.80926C1.21271 6.80957 1.21295 6.8099 0 7.69236C-1.21295 8.57483 -1.21268 8.5752 -1.2124 8.57558C-1.21229 8.57574 -1.212 8.57614 -1.21177 8.57645C-1.21132 8.57707 -1.21082 8.57776 -1.21026 8.57852C-1.20914 8.58006 -1.20779 8.58189 -1.20623 8.58402C-1.2031 8.58828 -1.19908 8.59373 -1.19419 8.60032C-1.18441 8.6135 -1.17112 8.63128 -1.15441 8.65335C-1.12099 8.69747 -1.07381 8.75882 -1.01355 8.83494C-0.893143 8.98704 -0.719843 9.19892 -0.499003 9.4507C-0.0590955 9.95224 0.578646 10.6226 1.37158 11.2967C2.91244 12.6067 5.2557 14.1154 8 14.1154V11.1154ZM0 7.69236C1.21295 8.57483 1.21271 8.57516 1.21249 8.57547C1.21243 8.57555 1.21222 8.57584 1.2121 8.576C1.21187 8.57632 1.21169 8.57656 1.21157 8.57673C1.21132 8.57707 1.21128 8.57712 1.21146 8.57688C1.2118 8.57641 1.21299 8.5748 1.21501 8.57207C1.21905 8.56663 1.22642 8.55676 1.23701 8.54277C1.25822 8.51478 1.29231 8.47036 1.33861 8.41186C1.43134 8.29473 1.57238 8.122 1.75636 7.91224C2.1261 7.4907 2.65993 6.93032 3.31472 6.37365C4.66928 5.22208 6.32602 4.26929 8 4.26929V1.26929C5.2557 1.26929 2.91244 2.77804 1.37158 4.088C0.578646 4.76211 -0.0590955 5.43249 -0.499003 5.93403C-0.719843 6.18581 -0.893143 6.39769 -1.01355 6.54979C-1.07381 6.62591 -1.12099 6.68726 -1.15441 6.73138C-1.17112 6.75345 -1.18441 6.77123 -1.19419 6.78441C-1.19908 6.791 -1.2031 6.79645 -1.20623 6.80071C-1.20779 6.80284 -1.20914 6.80467 -1.21026 6.80621C-1.21082 6.80697 -1.21132 6.80766 -1.21177 6.80828C-1.212 6.80859 -1.21229 6.80899 -1.2124 6.80914C-1.21268 6.80953 -1.21295 6.8099 0 7.69236ZM8 4.26929C9.67398 4.26929 11.3307 5.22208 12.6853 6.37365C13.3401 6.93032 13.8739 7.4907 14.2436 7.91224C14.4276 8.122 14.5687 8.29473 14.6614 8.41186C14.7077 8.47036 14.7418 8.51478 14.763 8.54277C14.7736 8.55676 14.7809 8.56663 14.785 8.57207C14.787 8.5748 14.7882 8.57641 14.7885 8.57688C14.7887 8.57712 14.7887 8.57707 14.7884 8.57673C14.7883 8.57656 14.7881 8.57632 14.7879 8.576C14.7878 8.57584 14.7876 8.57555 14.7875 8.57547C14.7873 8.57516 14.787 8.57483 16 7.69236C17.213 6.8099 17.2127 6.80953 17.2124 6.80914C17.2123 6.80899 17.212 6.80859 17.2118 6.80828C17.2113 6.80766 17.2108 6.80697 17.2103 6.80621C17.2091 6.80467 17.2078 6.80284 17.2062 6.80071C17.2031 6.79645 17.1991 6.791 17.1942 6.78441C17.1844 6.77123 17.1711 6.75345 17.1544 6.73138C17.121 6.68726 17.0738 6.62591 17.0136 6.54979C16.8931 6.39769 16.7198 6.18581 16.499 5.93403C16.0591 5.43249 15.4214 4.76211 14.6284 4.088C13.0876 2.77804 10.7443 1.26929 8 1.26929V4.26929Z" fill="white" mask="url(#path-1-inside-1_1699_10309)"/>
<circle cx="8.00045" cy="7.69235" r="1.24615" stroke="white" stroke-width="1.2"/>
</svg>
