<svg width="56" height="56" viewBox="0 0 56 56" fill="none" xmlns="http://www.w3.org/2000/svg">
<path d="M31.5 3.5C31.5 1.567 29.933 0 28 0C26.067 0 24.5 1.567 24.5 3.5V21.3333C24.5 22.4379 23.6046 23.3333 22.5 23.3333H3.5C1.567 23.3333 0 24.9003 0 26.8333C0 28.7663 1.567 30.3333 3.5 30.3333H22.5C23.6046 30.3333 24.5 31.2288 24.5 32.3333V52.5C24.5 54.433 26.067 56 28 56C29.933 56 31.5 54.433 31.5 52.5V32.3333C31.5 31.2288 32.3954 30.3333 33.5 30.3333H52.5C54.433 30.3333 56 28.7663 56 26.8333C56 24.9003 54.433 23.3333 52.5 23.3333H33.5C32.3954 23.3333 31.5 22.4379 31.5 21.3333V3.5Z" fill="white"/>
</svg>
