<svg width="470" height="30" viewBox="0 0 470 30" fill="none" xmlns="http://www.w3.org/2000/svg">
<mask id="mask0_2809_5179" style="mask-type:alpha" maskUnits="userSpaceOnUse" x="176" y="2" width="119" height="25">
<rect x="176.5" y="2" width="118" height="25" fill="#C4C4C4"/>
</mask>
<g mask="url(#mask0_2809_5179)">
<mask id="mask1_2809_5179" style="mask-type:alpha" maskUnits="userSpaceOnUse" x="176" y="2" width="44" height="26">
<rect x="176" y="2.5" width="43.3333" height="25" fill="#C4C4C4"/>
</mask>
<g mask="url(#mask1_2809_5179)">
<path fill-rule="evenodd" clip-rule="evenodd" d="M201.786 8.08958C198.637 12.5568 195.391 15.2531 192.259 15.3611C192.69 15.924 193.077 16.4447 193.433 16.9232C196.689 21.3036 197.323 22.1567 205.428 19.5385C209.29 18.2913 214.01 13.9494 218.535 8.08957L201.786 8.08958Z" fill="#004789"/>
<path fill-rule="evenodd" clip-rule="evenodd" d="M200.766 2.99814C197.88 9.72918 194.701 14.3375 191.485 15.5165C191.582 15.6155 191.678 15.7142 191.774 15.8125C196.466 20.632 200.299 24.5694 206.195 19.2299C209.308 16.411 213.051 10.2862 216.574 2.99814L200.766 2.99814Z" fill="#278BFF"/>
<path fill-rule="evenodd" clip-rule="evenodd" d="M176 12.7964C181.473 21.2243 186.709 24.304 196.04 23.4636C196.112 23.4572 196.207 23.4518 196.325 23.4451C197.662 23.3697 201.853 23.1331 206.085 19.384C197.818 20.5462 193.95 17.9688 190.952 12.7964L176 12.7964Z" fill="#3CD0FF"/>
</g>
<path d="M230.72 19.9308C235.106 19.9308 236.234 18.2896 236.721 15.4431L237.106 13.2633C237.183 12.853 237.208 12.4171 237.208 12.0837C237.208 9.77574 235.695 8.4166 232.182 8.4166H225.848L222.848 25.4955H226.028L227.002 19.9308H230.72ZM233.593 15.161C233.336 16.597 232.823 17.1869 230.926 17.1869H227.489L228.541 11.2118H232.028C233.464 11.2118 233.977 11.7247 233.977 12.6992C233.977 12.8787 233.952 13.1351 233.9 13.4172L233.593 15.161Z" fill="#003E77"/>
<path d="M243.368 25.4955C247.856 25.4955 249.061 23.5979 249.522 20.9822L250.83 13.5711C250.907 13.1607 250.933 12.853 250.933 12.494C250.933 10.3143 249.574 8.4166 245.984 8.4166H239.726L236.7 25.4955H243.368ZM246.496 20.1103C246.189 21.8541 245.625 22.7003 243.394 22.7003H240.368L242.393 11.2118H245.266C247.112 11.2118 247.702 11.8273 247.702 12.93C247.702 13.1351 247.676 13.4172 247.625 13.6993L246.496 20.1103Z" fill="#003E77"/>
<path d="M260.845 25.4955H264.845L267.846 8.4166H264.768L262.486 21.4181L258.255 8.4166H254.28L251.279 25.4955H254.382L256.613 12.8274L260.845 25.4955Z" fill="#003E77"/>
<path d="M272.505 25.752C276.89 25.752 278.275 23.9056 278.788 20.9822L279.378 17.6485C279.429 17.3407 279.455 17.0586 279.455 16.7509C279.455 14.5455 277.942 12.7504 274.736 12.7504C270.556 12.7504 269.043 14.5968 268.479 17.6741L267.941 20.6744C267.889 21.0078 267.864 21.3412 267.864 21.6746C267.864 23.8799 269.274 25.752 272.505 25.752ZM275.711 20.9822C275.454 22.4439 274.582 23.1619 272.967 23.1619C271.48 23.1619 270.915 22.5465 270.915 21.5463C270.915 21.3668 270.941 21.136 270.967 20.9822L271.556 17.6228C271.839 16.0842 272.71 15.3405 274.326 15.3405C275.736 15.3405 276.378 15.9047 276.378 16.9304C276.378 17.0843 276.352 17.3407 276.326 17.4946L275.711 20.9822Z" fill="#003E77"/>
<path d="M280.237 24.9314C281.467 25.3673 283.75 25.752 284.904 25.752C289.391 25.752 290.674 24.2903 291.34 20.5462L291.982 16.9048C292.058 16.4432 292.11 16.0072 292.11 15.5969C292.11 13.9044 291.366 12.7504 289.212 12.7504C287.955 12.7504 286.648 13.0838 285.263 13.8531L286.391 7.46777L283.237 7.90372L280.237 24.9314ZM284.801 16.4945C285.904 15.7764 287.186 15.3405 288.161 15.3405C288.725 15.3405 289.032 15.5456 289.032 16.0072C289.032 16.0842 289.032 16.1611 289.007 16.315L288.238 20.7001C287.955 22.3413 287.443 23.1619 285.468 23.1619C284.827 23.1619 284.211 23.085 283.647 22.9824L284.801 16.4945Z" fill="#003E77"/>
</g>
</svg>
