<svg width="24" height="24" viewBox="0 0 24 24" fill="none" xmlns="http://www.w3.org/2000/svg">
<path fill-rule="evenodd" clip-rule="evenodd" d="M18.0967 6.1744C17.8152 5.89291 17.3588 5.89291 17.0773 6.1744L12.6218 10.6299L7.99079 5.99888C7.70931 5.71739 7.25293 5.71739 6.97144 5.99888L6.46176 6.50855C6.18028 6.79004 6.18028 7.24642 6.46176 7.52791L11.0928 12.1589L6.46151 16.7902C6.18002 17.0716 6.18002 17.528 6.46151 17.8095L6.97119 18.3192C7.25267 18.6007 7.70906 18.6007 7.99054 18.3192L12.6218 13.688L17.0775 18.1437C17.359 18.4252 17.8154 18.4252 18.0969 18.1437L18.6066 17.634C18.888 17.3525 18.888 16.8962 18.6066 16.6147L14.1508 12.1589L18.6063 7.70343C18.8878 7.42194 18.8878 6.96556 18.6063 6.68408L18.0967 6.1744Z" fill="#969CA4"/>
</svg>
