<svg width="134" height="90" viewBox="0 0 134 90" fill="none" xmlns="http://www.w3.org/2000/svg">
<rect width="134" height="90" rx="8" fill="#F2F4F8"/>
<path d="M26.8979 68.2102V67.2727H33.4434V68.2102H30.699V76H29.6422V68.2102H26.8979ZM34.2583 76V69.4545H35.2299V70.4432H35.2981C35.4174 70.1193 35.6333 69.8565 35.9458 69.6548C36.2583 69.4531 36.6106 69.3523 37.0027 69.3523C37.0765 69.3523 37.1689 69.3537 37.2797 69.3565C37.3904 69.3594 37.4743 69.3636 37.5311 69.3693V70.392C37.497 70.3835 37.4189 70.3707 37.2967 70.3537C37.1774 70.3338 37.051 70.3239 36.9174 70.3239C36.5993 70.3239 36.3152 70.3906 36.0652 70.5241C35.818 70.6548 35.622 70.8366 35.4771 71.0696C35.335 71.2997 35.264 71.5625 35.264 71.858V76H34.2583ZM41.2683 76.1364C40.6376 76.1364 40.0936 75.9972 39.6362 75.7188C39.1816 75.4375 38.8308 75.0455 38.5836 74.5426C38.3393 74.0369 38.2172 73.4489 38.2172 72.7784C38.2172 72.108 38.3393 71.517 38.5836 71.0057C38.8308 70.4915 39.1745 70.0909 39.6149 69.804C40.0581 69.5142 40.5751 69.3693 41.166 69.3693C41.5069 69.3693 41.8436 69.4261 42.176 69.5398C42.5083 69.6534 42.8109 69.8381 43.0836 70.0938C43.3564 70.3466 43.5737 70.6818 43.7356 71.0994C43.8975 71.517 43.9785 72.0312 43.9785 72.642V73.0682H38.9331V72.1989H42.9558C42.9558 71.8295 42.8819 71.5 42.7342 71.2102C42.5893 70.9205 42.3819 70.6918 42.112 70.5241C41.845 70.3565 41.5297 70.2727 41.166 70.2727C40.7654 70.2727 40.4189 70.3722 40.1262 70.571C39.8365 70.767 39.6135 71.0227 39.4572 71.3381C39.301 71.6534 39.2228 71.9915 39.2228 72.3523V72.9318C39.2228 73.4261 39.3081 73.8452 39.4785 74.1889C39.6518 74.5298 39.8919 74.7898 40.1987 74.9688C40.5055 75.1449 40.862 75.233 41.2683 75.233C41.5325 75.233 41.7711 75.196 41.9842 75.1222C42.2001 75.0455 42.3862 74.9318 42.5424 74.7812C42.6987 74.6278 42.8194 74.4375 42.9047 74.2102L43.8762 74.483C43.774 74.8125 43.6021 75.1023 43.3606 75.3523C43.1191 75.5994 42.8208 75.7926 42.4657 75.9318C42.1106 76.0682 41.7115 76.1364 41.2683 76.1364ZM48.2527 76.1364C47.622 76.1364 47.0779 75.9972 46.6206 75.7188C46.166 75.4375 45.8152 75.0455 45.568 74.5426C45.3237 74.0369 45.2015 73.4489 45.2015 72.7784C45.2015 72.108 45.3237 71.517 45.568 71.0057C45.8152 70.4915 46.1589 70.0909 46.5993 69.804C47.0424 69.5142 47.5595 69.3693 48.1504 69.3693C48.4913 69.3693 48.8279 69.4261 49.1603 69.5398C49.4927 69.6534 49.7953 69.8381 50.068 70.0938C50.3407 70.3466 50.5581 70.6818 50.72 71.0994C50.8819 71.517 50.9629 72.0312 50.9629 72.642V73.0682H45.9174V72.1989H49.9402C49.9402 71.8295 49.8663 71.5 49.7186 71.2102C49.5737 70.9205 49.3663 70.6918 49.0964 70.5241C48.8294 70.3565 48.514 70.2727 48.1504 70.2727C47.7498 70.2727 47.4032 70.3722 47.1106 70.571C46.8208 70.767 46.5978 71.0227 46.4416 71.3381C46.2853 71.6534 46.2072 71.9915 46.2072 72.3523V72.9318C46.2072 73.4261 46.2924 73.8452 46.4629 74.1889C46.6362 74.5298 46.8762 74.7898 47.1831 74.9688C47.4899 75.1449 47.8464 75.233 48.2527 75.233C48.5169 75.233 48.7555 75.196 48.9686 75.1222C49.1845 75.0455 49.3706 74.9318 49.5268 74.7812C49.6831 74.6278 49.8038 74.4375 49.889 74.2102L50.8606 74.483C50.7583 74.8125 50.5865 75.1023 50.345 75.3523C50.1035 75.5994 49.8052 75.7926 49.4501 75.9318C49.095 76.0682 48.6958 76.1364 48.2527 76.1364ZM60.7768 69.4545C60.7257 69.0227 60.5183 68.6875 60.1547 68.4489C59.791 68.2102 59.345 68.0909 58.8166 68.0909C58.4302 68.0909 58.0922 68.1534 57.8024 68.2784C57.5154 68.4034 57.291 68.5753 57.1291 68.794C56.97 69.0128 56.8904 69.2614 56.8904 69.5398C56.8904 69.7727 56.9458 69.973 57.0566 70.1406C57.1703 70.3054 57.3152 70.4432 57.4913 70.554C57.6674 70.6619 57.8521 70.7514 58.0453 70.8224C58.2385 70.8906 58.416 70.946 58.5779 70.9886L59.4643 71.2273C59.6916 71.2869 59.9444 71.3693 60.2228 71.4744C60.5041 71.5795 60.7725 71.723 61.0282 71.9048C61.2868 72.0838 61.4998 72.3139 61.6674 72.5952C61.8351 72.8764 61.9189 73.2216 61.9189 73.6307C61.9189 74.1023 61.7953 74.5284 61.5481 74.9091C61.3038 75.2898 60.9458 75.5923 60.4743 75.8168C60.0055 76.0412 59.4359 76.1534 58.7654 76.1534C58.1404 76.1534 57.5993 76.0526 57.1419 75.8509C56.6873 75.6491 56.3294 75.3679 56.068 75.0071C55.8095 74.6463 55.6632 74.2273 55.6291 73.75H56.72C56.7484 74.0795 56.8592 74.3523 57.0524 74.5682C57.2484 74.7812 57.4956 74.9403 57.7939 75.0455C58.095 75.1477 58.4189 75.1989 58.7654 75.1989C59.1689 75.1989 59.5311 75.1335 59.8521 75.0028C60.1731 74.8693 60.4274 74.6847 60.6149 74.4489C60.8024 74.2102 60.8961 73.9318 60.8961 73.6136C60.8961 73.3239 60.8152 73.0881 60.6532 72.9062C60.4913 72.7244 60.2782 72.5767 60.014 72.4631C59.7498 72.3494 59.4643 72.25 59.1575 72.1648L58.0836 71.858C57.4018 71.6619 56.862 71.3821 56.4643 71.0185C56.0666 70.6548 55.8677 70.179 55.8677 69.5909C55.8677 69.1023 55.9998 68.6761 56.264 68.3125C56.5311 67.946 56.889 67.6619 57.3379 67.4602C57.7896 67.2557 58.2939 67.1534 58.8507 67.1534C59.4132 67.1534 59.9132 67.2543 60.3507 67.456C60.7882 67.6548 61.1348 67.9276 61.3904 68.2741C61.649 68.6207 61.7853 69.0142 61.7995 69.4545H60.7768ZM66.3667 69.4545V70.3068H62.9746V69.4545H66.3667ZM63.9632 67.8864H64.9689V74.125C64.9689 74.4091 65.0101 74.6222 65.0925 74.7642C65.1777 74.9034 65.2857 74.9972 65.4164 75.0455C65.5499 75.0909 65.6905 75.1136 65.8382 75.1136C65.949 75.1136 66.04 75.108 66.111 75.0966C66.182 75.0824 66.2388 75.071 66.2814 75.0625L66.486 75.9659C66.4178 75.9915 66.3226 76.017 66.2005 76.0426C66.0783 76.071 65.9235 76.0852 65.736 76.0852C65.4519 76.0852 65.1735 76.0241 64.9007 75.902C64.6309 75.7798 64.4064 75.5938 64.2275 75.3438C64.0513 75.0938 63.9632 74.7784 63.9632 74.3977V67.8864ZM67.8794 76V69.4545H68.851V70.4432H68.9192C69.0385 70.1193 69.2544 69.8565 69.5669 69.6548C69.8794 69.4531 70.2317 69.3523 70.6238 69.3523C70.6976 69.3523 70.79 69.3537 70.9007 69.3565C71.0115 69.3594 71.0953 69.3636 71.1522 69.3693V70.392C71.1181 70.3835 71.04 70.3707 70.9178 70.3537C70.7985 70.3338 70.6721 70.3239 70.5385 70.3239C70.2203 70.3239 69.9363 70.3906 69.6863 70.5241C69.4391 70.6548 69.2431 70.8366 69.0982 71.0696C68.9561 71.2997 68.8851 71.5625 68.8851 71.858V76H67.8794ZM76.4693 73.3239V69.4545H77.475V76H76.4693V74.892H76.4011C76.2477 75.2244 76.0091 75.5071 75.6852 75.7401C75.3613 75.9702 74.9522 76.0852 74.4579 76.0852C74.0488 76.0852 73.6852 75.9957 73.367 75.8168C73.0488 75.6349 72.7988 75.3622 72.617 74.9986C72.4352 74.6321 72.3443 74.1705 72.3443 73.6136V69.4545H73.35V73.5455C73.35 74.0227 73.4835 74.4034 73.7505 74.6875C74.0204 74.9716 74.3642 75.1136 74.7818 75.1136C75.0318 75.1136 75.286 75.0497 75.5446 74.9219C75.8059 74.794 76.0247 74.598 76.2008 74.3338C76.3798 74.0696 76.4693 73.733 76.4693 73.3239ZM81.976 76.1364C81.3624 76.1364 80.834 75.9915 80.3908 75.7017C79.9476 75.4119 79.6067 75.0128 79.3681 74.5043C79.1294 73.9957 79.0101 73.4148 79.0101 72.7614C79.0101 72.0966 79.1323 71.5099 79.3766 71.0014C79.6238 70.4901 79.9675 70.0909 80.4078 69.804C80.851 69.5142 81.3681 69.3693 81.959 69.3693C82.4192 69.3693 82.834 69.4545 83.2033 69.625C83.5726 69.7955 83.8752 70.0341 84.111 70.3409C84.3468 70.6477 84.4931 71.0057 84.5499 71.4148H83.5442C83.4675 71.1165 83.2971 70.8523 83.0328 70.6222C82.7715 70.3892 82.4192 70.2727 81.976 70.2727C81.584 70.2727 81.2402 70.375 80.9448 70.5795C80.6522 70.7812 80.4235 71.0668 80.2587 71.4361C80.0968 71.8026 80.0158 72.233 80.0158 72.7273C80.0158 73.233 80.0953 73.6733 80.2544 74.0483C80.4164 74.4233 80.6436 74.7145 80.9363 74.9219C81.2317 75.1293 81.5783 75.233 81.976 75.233C82.2374 75.233 82.4746 75.1875 82.6877 75.0966C82.9007 75.0057 83.0811 74.875 83.2289 74.7045C83.3766 74.5341 83.4817 74.3295 83.5442 74.0909H84.5499C84.4931 74.4773 84.3525 74.8253 84.128 75.1349C83.9064 75.4418 83.6124 75.6861 83.2459 75.8679C82.8823 76.0469 82.459 76.1364 81.976 76.1364ZM88.8667 69.4545V70.3068H85.4746V69.4545H88.8667ZM86.4632 67.8864H87.4689V74.125C87.4689 74.4091 87.5101 74.6222 87.5925 74.7642C87.6777 74.9034 87.7857 74.9972 87.9164 75.0455C88.0499 75.0909 88.1905 75.1136 88.3382 75.1136C88.449 75.1136 88.54 75.108 88.611 75.0966C88.682 75.0824 88.7388 75.071 88.7814 75.0625L88.986 75.9659C88.9178 75.9915 88.8226 76.017 88.7005 76.0426C88.5783 76.071 88.4235 76.0852 88.236 76.0852C87.9519 76.0852 87.6735 76.0241 87.4007 75.902C87.1309 75.7798 86.9064 75.5938 86.7275 75.3438C86.5513 75.0938 86.4632 74.7784 86.4632 74.3977V67.8864ZM94.5044 73.3239V69.4545H95.5101V76H94.5044V74.892H94.4363C94.2828 75.2244 94.0442 75.5071 93.7203 75.7401C93.3965 75.9702 92.9874 76.0852 92.4931 76.0852C92.084 76.0852 91.7203 75.9957 91.4022 75.8168C91.084 75.6349 90.834 75.3622 90.6522 74.9986C90.4703 74.6321 90.3794 74.1705 90.3794 73.6136V69.4545H91.3851V73.5455C91.3851 74.0227 91.5186 74.4034 91.7857 74.6875C92.0556 74.9716 92.3993 75.1136 92.8169 75.1136C93.0669 75.1136 93.3212 75.0497 93.5797 74.9219C93.8411 74.794 94.0598 74.598 94.236 74.3338C94.415 74.0696 94.5044 73.733 94.5044 73.3239ZM97.3521 76V69.4545H98.3237V70.4432H98.3919C98.5112 70.1193 98.7271 69.8565 99.0396 69.6548C99.3521 69.4531 99.7044 69.3523 100.096 69.3523C100.17 69.3523 100.263 69.3537 100.373 69.3565C100.484 69.3594 100.568 69.3636 100.625 69.3693V70.392C100.591 70.3835 100.513 70.3707 100.39 70.3537C100.271 70.3338 100.145 70.3239 100.011 70.3239C99.693 70.3239 99.4089 70.3906 99.1589 70.5241C98.9118 70.6548 98.7157 70.8366 98.5708 71.0696C98.4288 71.2997 98.3578 71.5625 98.3578 71.858V76H97.3521ZM104.362 76.1364C103.731 76.1364 103.187 75.9972 102.73 75.7188C102.275 75.4375 101.925 75.0455 101.677 74.5426C101.433 74.0369 101.311 73.4489 101.311 72.7784C101.311 72.108 101.433 71.517 101.677 71.0057C101.925 70.4915 102.268 70.0909 102.709 69.804C103.152 69.5142 103.669 69.3693 104.26 69.3693C104.601 69.3693 104.937 69.4261 105.27 69.5398C105.602 69.6534 105.905 69.8381 106.177 70.0938C106.45 70.3466 106.667 70.6818 106.829 71.0994C106.991 71.517 107.072 72.0312 107.072 72.642V73.0682H102.027V72.1989H106.05C106.05 71.8295 105.976 71.5 105.828 71.2102C105.683 70.9205 105.476 70.6918 105.206 70.5241C104.939 70.3565 104.623 70.2727 104.26 70.2727C103.859 70.2727 103.513 70.3722 103.22 70.571C102.93 70.767 102.707 71.0227 102.551 71.3381C102.395 71.6534 102.317 71.9915 102.317 72.3523V72.9318C102.317 73.4261 102.402 73.8452 102.572 74.1889C102.746 74.5298 102.986 74.7898 103.292 74.9688C103.599 75.1449 103.956 75.233 104.362 75.233C104.626 75.233 104.865 75.196 105.078 75.1222C105.294 75.0455 105.48 74.9318 105.636 74.7812C105.792 74.6278 105.913 74.4375 105.998 74.2102L106.97 74.483C106.868 74.8125 106.696 75.1023 106.454 75.3523C106.213 75.5994 105.915 75.7926 105.559 75.9318C105.204 76.0682 104.805 76.1364 104.362 76.1364Z" fill="#1D1D1F"/>
<rect x="58" y="16" width="19" height="11" rx="5.5" fill="#2F3A4E"/>
<rect x="43.5" y="45.5" width="12" height="7" rx="3.5" stroke="#2F3A4E" stroke-width="3"/>
<rect x="61.5" y="45.5" width="12" height="7" rx="3.5" stroke="#2F3A4E" stroke-width="3"/>
<rect x="79.5" y="45.5" width="12" height="7" rx="3.5" stroke="#2F3A4E" stroke-width="3"/>
<path d="M68 27L68 45" stroke="#2F3A4E" stroke-width="3" stroke-linecap="round"/>
<path d="M84.5 43L84.5 46L87.5 46L87.5 43L84.5 43ZM51.5 46L51.5 43L48.5 43L48.5 46L51.5 46ZM60 34.5L76 34.5L76 31.5L60 31.5L60 34.5ZM51.5 43C51.5 38.3056 55.3056 34.5 60 34.5L60 31.5C53.6487 31.5 48.5 36.6487 48.5 43L51.5 43ZM87.5 43C87.5 36.6487 82.3513 31.5 76 31.5L76 34.5C80.6944 34.5 84.5 38.3056 84.5 43L87.5 43Z" fill="#2F3A4E"/>
</svg>
