<svg width="134" height="90" viewBox="0 0 134 90" fill="none" xmlns="http://www.w3.org/2000/svg">
<rect width="134" height="90" rx="8" fill="#F2F4F8"/>
<path d="M14.0685 76V67.2727H19.3015V68.2102H15.1254V71.1591H18.9094V72.0966H15.1254V76H14.0685ZM20.9751 76V69.4545H21.9808V76H20.9751ZM21.4865 68.3636C21.2905 68.3636 21.1214 68.2969 20.9794 68.1634C20.8402 68.0298 20.7706 67.8693 20.7706 67.6818C20.7706 67.4943 20.8402 67.3338 20.9794 67.2003C21.1214 67.0668 21.2905 67 21.4865 67C21.6825 67 21.8501 67.0668 21.9893 67.2003C22.1314 67.3338 22.2024 67.4943 22.2024 67.6818C22.2024 67.8693 22.1314 68.0298 21.9893 68.1634C21.8501 68.2969 21.6825 68.3636 21.4865 68.3636ZM28.4592 70.9205L27.5558 71.1761C27.4989 71.0256 27.4151 70.8793 27.3043 70.7372C27.1964 70.5923 27.0487 70.473 26.8612 70.3793C26.6737 70.2855 26.4336 70.2386 26.141 70.2386C25.7404 70.2386 25.4066 70.331 25.1396 70.5156C24.8754 70.6974 24.7433 70.929 24.7433 71.2102C24.7433 71.4602 24.8342 71.6577 25.016 71.8026C25.1978 71.9474 25.4819 72.0682 25.8683 72.1648L26.8398 72.4034C27.4251 72.5455 27.8612 72.7628 28.1481 73.0554C28.435 73.3452 28.5785 73.7187 28.5785 74.1761C28.5785 74.5511 28.4705 74.8864 28.2546 75.1818C28.0415 75.4773 27.7433 75.7102 27.3597 75.8807C26.9762 76.0511 26.5302 76.1364 26.0217 76.1364C25.354 76.1364 24.8015 75.9915 24.364 75.7017C23.9265 75.4119 23.6495 74.9886 23.533 74.4318L24.4876 74.1932C24.5785 74.5455 24.7504 74.8097 25.0032 74.9858C25.2589 75.1619 25.5927 75.25 26.0046 75.25C26.4734 75.25 26.8455 75.1506 27.1211 74.9517C27.3995 74.75 27.5387 74.5085 27.5387 74.2273C27.5387 74 27.4592 73.8097 27.3001 73.6562C27.141 73.5 26.8967 73.3835 26.5671 73.3068L25.4762 73.0511C24.8768 72.9091 24.4364 72.6889 24.1552 72.3906C23.8768 72.0895 23.7376 71.7131 23.7376 71.2614C23.7376 70.892 23.8413 70.5653 24.0487 70.2812C24.2589 69.9972 24.5444 69.7741 24.9052 69.6122C25.2688 69.4503 25.6808 69.3693 26.141 69.3693C26.7887 69.3693 27.2972 69.5114 27.6665 69.7955C28.0387 70.0795 28.3029 70.4545 28.4592 70.9205ZM31.098 72.0625V76H30.0923V67.2727H31.098V70.4773H31.1832C31.3366 70.1392 31.5668 69.8707 31.8736 69.6719C32.1832 69.4702 32.5952 69.3693 33.1094 69.3693C33.5554 69.3693 33.946 69.4588 34.2812 69.6378C34.6165 69.8139 34.8764 70.0852 35.0611 70.4517C35.2486 70.8153 35.3423 71.2784 35.3423 71.8409V76H34.3366V71.9091C34.3366 71.3892 34.2017 70.9872 33.9318 70.7031C33.6648 70.4162 33.294 70.2727 32.8196 70.2727C32.4901 70.2727 32.1946 70.3423 31.9332 70.4815C31.6747 70.6207 31.4702 70.8239 31.3196 71.0909C31.1719 71.358 31.098 71.6818 31.098 72.0625ZM37.3185 76V67.2727H38.3242V70.4943H38.4094C38.4833 70.3807 38.5856 70.2358 38.7163 70.0597C38.8498 69.8807 39.0401 69.7216 39.2873 69.5824C39.5373 69.4403 39.8754 69.3693 40.3015 69.3693C40.8526 69.3693 41.3384 69.5071 41.7589 69.7827C42.1793 70.0582 42.5075 70.4489 42.7433 70.9545C42.979 71.4602 43.0969 72.0568 43.0969 72.7443C43.0969 73.4375 42.979 74.0384 42.7433 74.5469C42.5075 75.0526 42.1808 75.4446 41.7631 75.723C41.3455 75.9986 40.864 76.1364 40.3185 76.1364C39.8981 76.1364 39.5614 76.0668 39.3086 75.9276C39.0558 75.7855 38.8612 75.625 38.7248 75.446C38.5884 75.2642 38.4833 75.1136 38.4094 74.9943H38.2901V76H37.3185ZM38.3072 72.7273C38.3072 73.2216 38.3796 73.6577 38.5245 74.0355C38.6694 74.4105 38.881 74.7045 39.1594 74.9176C39.4379 75.1278 39.7788 75.233 40.1822 75.233C40.6026 75.233 40.9535 75.1222 41.2347 74.9006C41.5188 74.6761 41.7319 74.375 41.8739 73.9972C42.0188 73.6165 42.0913 73.1932 42.0913 72.7273C42.0913 72.267 42.0202 71.8523 41.8782 71.483C41.739 71.1108 41.5273 70.8168 41.2433 70.6009C40.962 70.3821 40.6083 70.2727 40.1822 70.2727C39.7731 70.2727 39.4293 70.3764 39.1509 70.5838C38.8725 70.7884 38.6623 71.0753 38.5202 71.4446C38.3782 71.8111 38.3072 72.2386 38.3072 72.7273ZM47.2944 76.1364C46.7035 76.1364 46.185 75.9957 45.739 75.7145C45.2958 75.4332 44.9492 75.0398 44.6992 74.5341C44.4521 74.0284 44.3285 73.4375 44.3285 72.7614C44.3285 72.0795 44.4521 71.4844 44.6992 70.9759C44.9492 70.4673 45.2958 70.0724 45.739 69.7912C46.185 69.5099 46.7035 69.3693 47.2944 69.3693C47.8853 69.3693 48.4023 69.5099 48.8455 69.7912C49.2915 70.0724 49.6381 70.4673 49.8853 70.9759C50.1353 71.4844 50.2603 72.0795 50.2603 72.7614C50.2603 73.4375 50.1353 74.0284 49.8853 74.5341C49.6381 75.0398 49.2915 75.4332 48.8455 75.7145C48.4023 75.9957 47.8853 76.1364 47.2944 76.1364ZM47.2944 75.233C47.7433 75.233 48.1126 75.1179 48.4023 74.8878C48.6921 74.6577 48.9066 74.3551 49.0458 73.9801C49.185 73.6051 49.2546 73.1989 49.2546 72.7614C49.2546 72.3239 49.185 71.9162 49.0458 71.5384C48.9066 71.1605 48.6921 70.8551 48.4023 70.6222C48.1126 70.3892 47.7433 70.2727 47.2944 70.2727C46.8455 70.2727 46.4762 70.3892 46.1864 70.6222C45.8967 70.8551 45.6822 71.1605 45.543 71.5384C45.4038 71.9162 45.3342 72.3239 45.3342 72.7614C45.3342 73.1989 45.4038 73.6051 45.543 73.9801C45.6822 74.3551 45.8967 74.6577 46.1864 74.8878C46.4762 75.1179 46.8455 75.233 47.2944 75.233ZM52.8011 72.0625V76H51.7955V69.4545H52.767V70.4773H52.8523C53.0057 70.1449 53.2386 69.8778 53.5511 69.6761C53.8636 69.4716 54.267 69.3693 54.7614 69.3693C55.2045 69.3693 55.5923 69.4602 55.9247 69.642C56.2571 69.821 56.5156 70.0938 56.7003 70.4602C56.8849 70.8239 56.9773 71.2841 56.9773 71.8409V76H55.9716V71.9091C55.9716 71.3949 55.8381 70.9943 55.571 70.7074C55.304 70.4176 54.9375 70.2727 54.4716 70.2727C54.1506 70.2727 53.8636 70.3423 53.6108 70.4815C53.3608 70.6207 53.1634 70.8239 53.0185 71.0909C52.8736 71.358 52.8011 71.6818 52.8011 72.0625ZM61.5593 76.1364C60.9286 76.1364 60.3846 75.9972 59.9272 75.7188C59.4727 75.4375 59.1218 75.0455 58.8746 74.5426C58.6303 74.0369 58.5082 73.4489 58.5082 72.7784C58.5082 72.108 58.6303 71.517 58.8746 71.0057C59.1218 70.4915 59.4656 70.0909 59.9059 69.804C60.3491 69.5142 60.8661 69.3693 61.457 69.3693C61.7979 69.3693 62.1346 69.4261 62.467 69.5398C62.7994 69.6534 63.1019 69.8381 63.3746 70.0938C63.6474 70.3466 63.8647 70.6818 64.0266 71.0994C64.1886 71.517 64.2695 72.0312 64.2695 72.642V73.0682H59.2241V72.1989H63.2468C63.2468 71.8295 63.1729 71.5 63.0252 71.2102C62.8803 70.9205 62.6729 70.6918 62.4031 70.5241C62.136 70.3565 61.8207 70.2727 61.457 70.2727C61.0565 70.2727 60.7099 70.3722 60.4173 70.571C60.1275 70.767 59.9045 71.0227 59.7482 71.3381C59.592 71.6534 59.5138 71.9915 59.5138 72.3523V72.9318C59.5138 73.4261 59.5991 73.8452 59.7695 74.1889C59.9428 74.5298 60.1829 74.7898 60.4897 74.9688C60.7965 75.1449 61.1531 75.233 61.5593 75.233C61.8235 75.233 62.0621 75.196 62.2752 75.1222C62.4911 75.0455 62.6772 74.9318 62.8335 74.7812C62.9897 74.6278 63.1104 74.4375 63.1957 74.2102L64.1673 74.483C64.065 74.8125 63.8931 75.1023 63.6516 75.3523C63.4102 75.5994 63.1119 75.7926 62.7567 75.9318C62.4016 76.0682 62.0025 76.1364 61.5593 76.1364ZM74.0835 69.4545C74.0323 69.0227 73.8249 68.6875 73.4613 68.4489C73.0977 68.2102 72.6516 68.0909 72.1232 68.0909C71.7369 68.0909 71.3988 68.1534 71.109 68.2784C70.8221 68.4034 70.5977 68.5753 70.4357 68.794C70.2766 69.0128 70.1971 69.2614 70.1971 69.5398C70.1971 69.7727 70.2525 69.973 70.3633 70.1406C70.4769 70.3054 70.6218 70.4432 70.7979 70.554C70.9741 70.6619 71.1587 70.7514 71.3519 70.8224C71.5451 70.8906 71.7227 70.946 71.8846 70.9886L72.771 71.2273C72.9982 71.2869 73.2511 71.3693 73.5295 71.4744C73.8107 71.5795 74.0792 71.723 74.3349 71.9048C74.5934 72.0838 74.8065 72.3139 74.9741 72.5952C75.1417 72.8764 75.2255 73.2216 75.2255 73.6307C75.2255 74.1023 75.1019 74.5284 74.8548 74.9091C74.6104 75.2898 74.2525 75.5923 73.7809 75.8168C73.3121 76.0412 72.7425 76.1534 72.0721 76.1534C71.4471 76.1534 70.9059 76.0526 70.4485 75.8509C69.994 75.6491 69.636 75.3679 69.3746 75.0071C69.1161 74.6463 68.9698 74.2273 68.9357 73.75H70.0266C70.055 74.0795 70.1658 74.3523 70.359 74.5682C70.555 74.7812 70.8022 74.9403 71.1005 75.0455C71.4016 75.1477 71.7255 75.1989 72.0721 75.1989C72.4755 75.1989 72.8377 75.1335 73.1587 75.0028C73.4798 74.8693 73.734 74.6847 73.9215 74.4489C74.109 74.2102 74.2028 73.9318 74.2028 73.6136C74.2028 73.3239 74.1218 73.0881 73.9599 72.9062C73.7979 72.7244 73.5849 72.5767 73.3207 72.4631C73.0565 72.3494 72.771 72.25 72.4641 72.1648L71.3903 71.858C70.7085 71.6619 70.1687 71.3821 69.771 71.0185C69.3732 70.6548 69.1744 70.179 69.1744 69.5909C69.1744 69.1023 69.3065 68.6761 69.5707 68.3125C69.8377 67.946 70.1957 67.6619 70.6445 67.4602C71.0962 67.2557 71.6005 67.1534 72.1573 67.1534C72.7198 67.1534 73.2198 67.2543 73.6573 67.456C74.0948 67.6548 74.4414 67.9276 74.6971 68.2741C74.9556 68.6207 75.092 69.0142 75.1062 69.4545H74.0835ZM79.6733 69.4545V70.3068H76.2812V69.4545H79.6733ZM77.2699 67.8864H78.2756V74.125C78.2756 74.4091 78.3168 74.6222 78.3991 74.7642C78.4844 74.9034 78.5923 74.9972 78.723 75.0455C78.8565 75.0909 78.9972 75.1136 79.1449 75.1136C79.2557 75.1136 79.3466 75.108 79.4176 75.0966C79.4886 75.0824 79.5455 75.071 79.5881 75.0625L79.7926 75.9659C79.7244 75.9915 79.6293 76.017 79.5071 76.0426C79.3849 76.071 79.2301 76.0852 79.0426 76.0852C78.7585 76.0852 78.4801 76.0241 78.2074 75.902C77.9375 75.7798 77.7131 75.5938 77.5341 75.3438C77.358 75.0938 77.2699 74.7784 77.2699 74.3977V67.8864ZM81.1861 76V69.4545H82.1577V70.4432H82.2259C82.3452 70.1193 82.5611 69.8565 82.8736 69.6548C83.1861 69.4531 83.5384 69.3523 83.9304 69.3523C84.0043 69.3523 84.0966 69.3537 84.2074 69.3565C84.3182 69.3594 84.402 69.3636 84.4588 69.3693V70.392C84.4247 70.3835 84.3466 70.3707 84.2244 70.3537C84.1051 70.3338 83.9787 70.3239 83.8452 70.3239C83.527 70.3239 83.2429 70.3906 82.9929 70.5241C82.7457 70.6548 82.5497 70.8366 82.4048 71.0696C82.2628 71.2997 82.1918 71.5625 82.1918 71.858V76H81.1861ZM89.7759 73.3239V69.4545H90.7816V76H89.7759V74.892H89.7077C89.5543 75.2244 89.3157 75.5071 88.9918 75.7401C88.668 75.9702 88.2589 76.0852 87.7646 76.0852C87.3555 76.0852 86.9918 75.9957 86.6737 75.8168C86.3555 75.6349 86.1055 75.3622 85.9237 74.9986C85.7418 74.6321 85.6509 74.1705 85.6509 73.6136V69.4545H86.6566V73.5455C86.6566 74.0227 86.7901 74.4034 87.0572 74.6875C87.3271 74.9716 87.6708 75.1136 88.0884 75.1136C88.3384 75.1136 88.5927 75.0497 88.8512 74.9219C89.1126 74.794 89.3313 74.598 89.5075 74.3338C89.6864 74.0696 89.7759 73.733 89.7759 73.3239ZM95.2827 76.1364C94.669 76.1364 94.1406 75.9915 93.6974 75.7017C93.2543 75.4119 92.9134 75.0128 92.6747 74.5043C92.4361 73.9957 92.3168 73.4148 92.3168 72.7614C92.3168 72.0966 92.4389 71.5099 92.6832 71.0014C92.9304 70.4901 93.2741 70.0909 93.7145 69.804C94.1577 69.5142 94.6747 69.3693 95.2656 69.3693C95.7259 69.3693 96.1406 69.4545 96.5099 69.625C96.8793 69.7955 97.1818 70.0341 97.4176 70.3409C97.6534 70.6477 97.7997 71.0057 97.8565 71.4148H96.8509C96.7741 71.1165 96.6037 70.8523 96.3395 70.6222C96.0781 70.3892 95.7259 70.2727 95.2827 70.2727C94.8906 70.2727 94.5469 70.375 94.2514 70.5795C93.9588 70.7812 93.7301 71.0668 93.5653 71.4361C93.4034 71.8026 93.3224 72.233 93.3224 72.7273C93.3224 73.233 93.402 73.6733 93.5611 74.0483C93.723 74.4233 93.9503 74.7145 94.2429 74.9219C94.5384 75.1293 94.8849 75.233 95.2827 75.233C95.544 75.233 95.7812 75.1875 95.9943 75.0966C96.2074 75.0057 96.3878 74.875 96.5355 74.7045C96.6832 74.5341 96.7884 74.3295 96.8509 74.0909H97.8565C97.7997 74.4773 97.6591 74.8253 97.4347 75.1349C97.2131 75.4418 96.919 75.6861 96.5526 75.8679C96.1889 76.0469 95.7656 76.1364 95.2827 76.1364ZM102.173 69.4545V70.3068H98.7812V69.4545H102.173ZM99.7699 67.8864H100.776V74.125C100.776 74.4091 100.817 74.6222 100.899 74.7642C100.984 74.9034 101.092 74.9972 101.223 75.0455C101.357 75.0909 101.497 75.1136 101.645 75.1136C101.756 75.1136 101.847 75.108 101.918 75.0966C101.989 75.0824 102.045 75.071 102.088 75.0625L102.293 75.9659C102.224 75.9915 102.129 76.017 102.007 76.0426C101.885 76.071 101.73 76.0852 101.543 76.0852C101.259 76.0852 100.98 76.0241 100.707 75.902C100.438 75.7798 100.213 75.5938 100.034 75.3438C99.858 75.0938 99.7699 74.7784 99.7699 74.3977V67.8864ZM107.811 73.3239V69.4545H108.817V76H107.811V74.892H107.743C107.589 75.2244 107.351 75.5071 107.027 75.7401C106.703 75.9702 106.294 76.0852 105.8 76.0852C105.391 76.0852 105.027 75.9957 104.709 75.8168C104.391 75.6349 104.141 75.3622 103.959 74.9986C103.777 74.6321 103.686 74.1705 103.686 73.6136V69.4545H104.692V73.5455C104.692 74.0227 104.825 74.4034 105.092 74.6875C105.362 74.9716 105.706 75.1136 106.124 75.1136C106.374 75.1136 106.628 75.0497 106.886 74.9219C107.148 74.794 107.366 74.598 107.543 74.3338C107.722 74.0696 107.811 73.733 107.811 73.3239ZM110.659 76V69.4545H111.63V70.4432H111.699C111.818 70.1193 112.034 69.8565 112.346 69.6548C112.659 69.4531 113.011 69.3523 113.403 69.3523C113.477 69.3523 113.569 69.3537 113.68 69.3565C113.791 69.3594 113.875 69.3636 113.931 69.3693V70.392C113.897 70.3835 113.819 70.3707 113.697 70.3537C113.578 70.3338 113.451 70.3239 113.318 70.3239C113 70.3239 112.716 70.3906 112.466 70.5241C112.218 70.6548 112.022 70.8366 111.877 71.0696C111.735 71.2997 111.664 71.5625 111.664 71.858V76H110.659ZM117.669 76.1364C117.038 76.1364 116.494 75.9972 116.037 75.7188C115.582 75.4375 115.231 75.0455 114.984 74.5426C114.74 74.0369 114.618 73.4489 114.618 72.7784C114.618 72.108 114.74 71.517 114.984 71.0057C115.231 70.4915 115.575 70.0909 116.015 69.804C116.458 69.5142 116.975 69.3693 117.566 69.3693C117.907 69.3693 118.244 69.4261 118.576 69.5398C118.909 69.6534 119.211 69.8381 119.484 70.0938C119.757 70.3466 119.974 70.6818 120.136 71.0994C120.298 71.517 120.379 72.0312 120.379 72.642V73.0682H115.333V72.1989H119.356C119.356 71.8295 119.282 71.5 119.135 71.2102C118.99 70.9205 118.782 70.6918 118.512 70.5241C118.245 70.3565 117.93 70.2727 117.566 70.2727C117.166 70.2727 116.819 70.3722 116.527 70.571C116.237 70.767 116.014 71.0227 115.858 71.3381C115.701 71.6534 115.623 71.9915 115.623 72.3523V72.9318C115.623 73.4261 115.708 73.8452 115.879 74.1889C116.052 74.5298 116.292 74.7898 116.599 74.9688C116.906 75.1449 117.262 75.233 117.669 75.233C117.933 75.233 118.172 75.196 118.385 75.1222C118.6 75.0455 118.787 74.9318 118.943 74.7812C119.099 74.6278 119.22 74.4375 119.305 74.2102L120.277 74.483C120.174 74.8125 120.002 75.1023 119.761 75.3523C119.52 75.5994 119.221 75.7926 118.866 75.9318C118.511 76.0682 118.112 76.1364 117.669 76.1364Z" fill="#1D1D1F"/>
<rect width="18" height="12" rx="6" transform="matrix(-1 0 0 1 59 30)" fill="#2F3A4E"/>
<path d="M58 36H82" stroke="#2F3A4E" stroke-width="3" stroke-linecap="round"/>
<path d="M64 35.5L70.5 28" stroke="#2F3A4E" stroke-width="3" stroke-linecap="round"/>
<path d="M70 44.5L76.5 37" stroke="#2F3A4E" stroke-width="3" stroke-linecap="round"/>
<rect x="-1.5" y="1.5" width="9" height="8" rx="4" transform="matrix(-1 0 0 1 90 30.5)" stroke="#2F3A4E" stroke-width="3"/>
</svg>
