<svg width="40" height="40" viewBox="0 0 40 40" fill="none" xmlns="http://www.w3.org/2000/svg">
<path d="M0 20C0 8.95431 8.95431 0 20 0C31.0457 0 40 8.95431 40 20C40 31.0457 31.0457 40 20 40C8.95431 40 0 31.0457 0 20Z" fill="#F2F2F2"/>
<path d="M17.0112 7.98099C18.8517 6.14047 21.8358 6.14047 23.6763 7.98099C25.5168 9.82151 25.5168 12.8056 23.6763 14.6461L20.3438 17.9786L17.0112 14.6461C15.1707 12.8056 15.1707 9.82151 17.0112 7.98099Z" fill="#FFAE4F"/>
<path d="M17.0112 30.143C18.8517 31.9836 21.8358 31.9836 23.6763 30.143C25.5168 28.3025 25.5168 25.3184 23.6763 23.4779L20.3438 20.1454L17.0112 23.4779C15.1707 25.3184 15.1707 28.3025 17.0112 30.143Z" fill="#466FFF"/>
<path d="M31.8237 22.3946C33.6642 20.554 33.6642 17.57 31.8237 15.7295C29.9832 13.8889 26.9991 13.8889 25.1586 15.7295L21.826 19.062L25.1586 22.3946C26.9991 24.2351 29.9832 24.2351 31.8237 22.3946Z" fill="#FF5151"/>
<path d="M8.86576 22.3946C7.02524 20.554 7.02524 17.57 8.86576 15.7295C10.7063 13.8889 13.6903 13.8889 15.5309 15.7295L18.8634 19.062L15.5309 22.3946C13.6903 24.2351 10.7063 24.2351 8.86576 22.3946Z" fill="#1ACE78"/>
</svg>
