<svg width="134" height="90" viewBox="0 0 134 90" fill="none" xmlns="http://www.w3.org/2000/svg">
<rect width="134" height="90" rx="8" fill="#F2F4F8"/>
<path d="M15.1369 76V67.2727H16.1937V75.0625H20.2505V76H15.1369ZM24.4949 76.1364C23.8642 76.1364 23.3201 75.9972 22.8627 75.7188C22.4082 75.4375 22.0574 75.0455 21.8102 74.5426C21.5659 74.0369 21.4437 73.4489 21.4437 72.7784C21.4437 72.108 21.5659 71.517 21.8102 71.0057C22.0574 70.4915 22.4011 70.0909 22.8414 69.804C23.2846 69.5142 23.8017 69.3693 24.3926 69.3693C24.7335 69.3693 25.0701 69.4261 25.4025 69.5398C25.7349 69.6534 26.0375 69.8381 26.3102 70.0938C26.5829 70.3466 26.8002 70.6818 26.9622 71.0994C27.1241 71.517 27.2051 72.0312 27.2051 72.642V73.0682H22.1596V72.1989H26.1824C26.1824 71.8295 26.1085 71.5 25.9608 71.2102C25.8159 70.9205 25.6085 70.6918 25.3386 70.5241C25.0716 70.3565 24.7562 70.2727 24.3926 70.2727C23.992 70.2727 23.6454 70.3722 23.3528 70.571C23.063 70.767 22.84 71.0227 22.6838 71.3381C22.5275 71.6534 22.4494 71.9915 22.4494 72.3523V72.9318C22.4494 73.4261 22.5346 73.8452 22.7051 74.1889C22.8784 74.5298 23.1184 74.7898 23.4252 74.9688C23.7321 75.1449 24.0886 75.233 24.4949 75.233C24.7591 75.233 24.9977 75.196 25.2108 75.1222C25.4267 75.0455 25.6127 74.9318 25.769 74.7812C25.9252 74.6278 26.046 74.4375 26.1312 74.2102L27.1028 74.483C27.0005 74.8125 26.8287 75.1023 26.5872 75.3523C26.3457 75.5994 26.0474 75.7926 25.6923 75.9318C25.3372 76.0682 24.938 76.1364 24.4949 76.1364ZM31.6497 69.4545V70.3068H28.1213V69.4545H31.6497ZM29.1781 76V68.5511C29.1781 68.1761 29.2662 67.8636 29.4423 67.6136C29.6184 67.3636 29.8471 67.1761 30.1284 67.0511C30.4096 66.9261 30.7065 66.8636 31.019 66.8636C31.2662 66.8636 31.4679 66.8835 31.6241 66.9233C31.7804 66.9631 31.8968 67 31.9735 67.0341L31.6838 67.9034C31.6326 67.8864 31.5616 67.8651 31.4707 67.8395C31.3826 67.8139 31.2662 67.8011 31.1213 67.8011C30.7889 67.8011 30.5488 67.8849 30.4011 68.0526C30.2562 68.2202 30.1838 68.4659 30.1838 68.7898V76H29.1781ZM35.9057 69.4545V70.3068H32.5137V69.4545H35.9057ZM33.5023 67.8864H34.508V74.125C34.508 74.4091 34.5492 74.6222 34.6316 74.7642C34.7168 74.9034 34.8248 74.9972 34.9554 75.0455C35.089 75.0909 35.2296 75.1136 35.3773 75.1136C35.4881 75.1136 35.579 75.108 35.65 75.0966C35.7211 75.0824 35.7779 75.071 35.8205 75.0625L36.025 75.9659C35.9569 75.9915 35.8617 76.017 35.7395 76.0426C35.6174 76.071 35.4625 76.0852 35.275 76.0852C34.9909 76.0852 34.7125 76.0241 34.4398 75.902C34.1699 75.7798 33.9455 75.5938 33.7665 75.3438C33.5904 75.0938 33.5023 74.7784 33.5023 74.3977V67.8864ZM45.7026 69.4545C45.6515 69.0227 45.4441 68.6875 45.0804 68.4489C44.7168 68.2102 44.2708 68.0909 43.7424 68.0909C43.356 68.0909 43.0179 68.1534 42.7282 68.2784C42.4412 68.4034 42.2168 68.5753 42.0549 68.794C41.8958 69.0128 41.8162 69.2614 41.8162 69.5398C41.8162 69.7727 41.8716 69.973 41.9824 70.1406C42.0961 70.3054 42.2409 70.4432 42.4171 70.554C42.5932 70.6619 42.7779 70.7514 42.9711 70.8224C43.1642 70.8906 43.3418 70.946 43.5037 70.9886L44.3901 71.2273C44.6174 71.2869 44.8702 71.3693 45.1486 71.4744C45.4299 71.5795 45.6983 71.723 45.954 71.9048C46.2125 72.0838 46.4256 72.3139 46.5932 72.5952C46.7608 72.8764 46.8446 73.2216 46.8446 73.6307C46.8446 74.1023 46.7211 74.5284 46.4739 74.9091C46.2296 75.2898 45.8716 75.5923 45.4 75.8168C44.9313 76.0412 44.3617 76.1534 43.6912 76.1534C43.0662 76.1534 42.525 76.0526 42.0676 75.8509C41.6131 75.6491 41.2551 75.3679 40.9938 75.0071C40.7353 74.6463 40.589 74.2273 40.5549 73.75H41.6458C41.6742 74.0795 41.785 74.3523 41.9782 74.5682C42.1742 74.7812 42.4213 74.9403 42.7196 75.0455C43.0208 75.1477 43.3446 75.1989 43.6912 75.1989C44.0946 75.1989 44.4569 75.1335 44.7779 75.0028C45.0989 74.8693 45.3532 74.6847 45.5407 74.4489C45.7282 74.2102 45.8219 73.9318 45.8219 73.6136C45.8219 73.3239 45.7409 73.0881 45.579 72.9062C45.4171 72.7244 45.204 72.5767 44.9398 72.4631C44.6756 72.3494 44.3901 72.25 44.0833 72.1648L43.0094 71.858C42.3276 71.6619 41.7878 71.3821 41.3901 71.0185C40.9924 70.6548 40.7935 70.179 40.7935 69.5909C40.7935 69.1023 40.9256 68.6761 41.1898 68.3125C41.4569 67.946 41.8148 67.6619 42.2637 67.4602C42.7154 67.2557 43.2196 67.1534 43.7765 67.1534C44.339 67.1534 44.839 67.2543 45.2765 67.456C45.714 67.6548 46.0605 67.9276 46.3162 68.2741C46.5748 68.6207 46.7111 69.0142 46.7253 69.4545H45.7026ZM48.4458 76V69.4545H49.4515V76H48.4458ZM48.9572 68.3636C48.7612 68.3636 48.5922 68.2969 48.4501 68.1634C48.3109 68.0298 48.2413 67.8693 48.2413 67.6818C48.2413 67.4943 48.3109 67.3338 48.4501 67.2003C48.5922 67.0668 48.7612 67 48.9572 67C49.1532 67 49.3208 67.0668 49.46 67.2003C49.6021 67.3338 49.6731 67.4943 49.6731 67.6818C49.6731 67.8693 49.6021 68.0298 49.46 68.1634C49.3208 68.2969 49.1532 68.3636 48.9572 68.3636ZM53.7651 76.1364C53.2196 76.1364 52.7381 75.9986 52.3205 75.723C51.9029 75.4446 51.5762 75.0526 51.3404 74.5469C51.1046 74.0384 50.9867 73.4375 50.9867 72.7443C50.9867 72.0568 51.1046 71.4602 51.3404 70.9545C51.5762 70.4489 51.9043 70.0582 52.3248 69.7827C52.7452 69.5071 53.231 69.3693 53.7821 69.3693C54.2083 69.3693 54.5449 69.4403 54.7921 69.5824C55.0421 69.7216 55.2324 69.8807 55.3631 70.0597C55.4966 70.2358 55.6003 70.3807 55.6742 70.4943H55.7594V67.2727H56.7651V76H55.7935V74.9943H55.6742C55.6003 75.1136 55.4952 75.2642 55.3588 75.446C55.2225 75.625 55.0279 75.7855 54.775 75.9276C54.5222 76.0668 54.1855 76.1364 53.7651 76.1364ZM53.9015 75.233C54.3049 75.233 54.6458 75.1278 54.9242 74.9176C55.2026 74.7045 55.4142 74.4105 55.5591 74.0355C55.704 73.6577 55.7765 73.2216 55.7765 72.7273C55.7765 72.2386 55.7054 71.8111 55.5634 71.4446C55.4213 71.0753 55.2111 70.7884 54.9327 70.5838C54.6543 70.3764 54.3105 70.2727 53.9015 70.2727C53.4753 70.2727 53.1202 70.3821 52.8361 70.6009C52.5549 70.8168 52.3432 71.1108 52.2012 71.483C52.062 71.8523 51.9924 72.267 51.9924 72.7273C51.9924 73.1932 52.0634 73.6165 52.2054 73.9972C52.3503 74.375 52.5634 74.6761 52.8446 74.9006C53.1287 75.1222 53.481 75.233 53.9015 75.233ZM61.4909 76.1364C60.8603 76.1364 60.3162 75.9972 59.8588 75.7188C59.4043 75.4375 59.0534 75.0455 58.8063 74.5426C58.562 74.0369 58.4398 73.4489 58.4398 72.7784C58.4398 72.108 58.562 71.517 58.8063 71.0057C59.0534 70.4915 59.3972 70.0909 59.8375 69.804C60.2807 69.5142 60.7978 69.3693 61.3887 69.3693C61.7296 69.3693 62.0662 69.4261 62.3986 69.5398C62.731 69.6534 63.0336 69.8381 63.3063 70.0938C63.579 70.3466 63.7963 70.6818 63.9583 71.0994C64.1202 71.517 64.2012 72.0312 64.2012 72.642V73.0682H59.1557V72.1989H63.1784C63.1784 71.8295 63.1046 71.5 62.9569 71.2102C62.812 70.9205 62.6046 70.6918 62.3347 70.5241C62.0676 70.3565 61.7523 70.2727 61.3887 70.2727C60.9881 70.2727 60.6415 70.3722 60.3489 70.571C60.0591 70.767 59.8361 71.0227 59.6799 71.3381C59.5236 71.6534 59.4455 71.9915 59.4455 72.3523V72.9318C59.4455 73.4261 59.5307 73.8452 59.7012 74.1889C59.8745 74.5298 60.1145 74.7898 60.4213 74.9688C60.7282 75.1449 61.0847 75.233 61.4909 75.233C61.7551 75.233 61.9938 75.196 62.2069 75.1222C62.4228 75.0455 62.6088 74.9318 62.7651 74.7812C62.9213 74.6278 63.0421 74.4375 63.1273 74.2102L64.0989 74.483C63.9966 74.8125 63.8248 75.1023 63.5833 75.3523C63.3418 75.5994 63.0435 75.7926 62.6884 75.9318C62.3333 76.0682 61.9341 76.1364 61.4909 76.1364ZM74.0151 69.4545C73.964 69.0227 73.7566 68.6875 73.3929 68.4489C73.0293 68.2102 72.5833 68.0909 72.0549 68.0909C71.6685 68.0909 71.3304 68.1534 71.0407 68.2784C70.7537 68.4034 70.5293 68.5753 70.3674 68.794C70.2083 69.0128 70.1287 69.2614 70.1287 69.5398C70.1287 69.7727 70.1841 69.973 70.2949 70.1406C70.4086 70.3054 70.5534 70.4432 70.7296 70.554C70.9057 70.6619 71.0904 70.7514 71.2836 70.8224C71.4767 70.8906 71.6543 70.946 71.8162 70.9886L72.7026 71.2273C72.9299 71.2869 73.1827 71.3693 73.4611 71.4744C73.7424 71.5795 74.0108 71.723 74.2665 71.9048C74.525 72.0838 74.7381 72.3139 74.9057 72.5952C75.0733 72.8764 75.1571 73.2216 75.1571 73.6307C75.1571 74.1023 75.0336 74.5284 74.7864 74.9091C74.5421 75.2898 74.1841 75.5923 73.7125 75.8168C73.2438 76.0412 72.6742 76.1534 72.0037 76.1534C71.3787 76.1534 70.8375 76.0526 70.3801 75.8509C69.9256 75.6491 69.5676 75.3679 69.3063 75.0071C69.0478 74.6463 68.9015 74.2273 68.8674 73.75H69.9583C69.9867 74.0795 70.0975 74.3523 70.2907 74.5682C70.4867 74.7812 70.7338 74.9403 71.0321 75.0455C71.3333 75.1477 71.6571 75.1989 72.0037 75.1989C72.4071 75.1989 72.7694 75.1335 73.0904 75.0028C73.4114 74.8693 73.6657 74.6847 73.8532 74.4489C74.0407 74.2102 74.1344 73.9318 74.1344 73.6136C74.1344 73.3239 74.0534 73.0881 73.8915 72.9062C73.7296 72.7244 73.5165 72.5767 73.2523 72.4631C72.9881 72.3494 72.7026 72.25 72.3958 72.1648L71.3219 71.858C70.6401 71.6619 70.1003 71.3821 69.7026 71.0185C69.3049 70.6548 69.106 70.179 69.106 69.5909C69.106 69.1023 69.2381 68.6761 69.5023 68.3125C69.7694 67.946 70.1273 67.6619 70.5762 67.4602C71.0279 67.2557 71.5321 67.1534 72.089 67.1534C72.6515 67.1534 73.1515 67.2543 73.589 67.456C74.0265 67.6548 74.373 67.9276 74.6287 68.2741C74.8873 68.6207 75.0236 69.0142 75.0378 69.4545H74.0151ZM79.6049 69.4545V70.3068H76.2129V69.4545H79.6049ZM77.2015 67.8864H78.2072V74.125C78.2072 74.4091 78.2484 74.6222 78.3308 74.7642C78.416 74.9034 78.524 74.9972 78.6547 75.0455C78.7882 75.0909 78.9288 75.1136 79.0765 75.1136C79.1873 75.1136 79.2782 75.108 79.3493 75.0966C79.4203 75.0824 79.4771 75.071 79.5197 75.0625L79.7243 75.9659C79.6561 75.9915 79.5609 76.017 79.4387 76.0426C79.3166 76.071 79.1618 76.0852 78.9743 76.0852C78.6902 76.0852 78.4118 76.0241 78.139 75.902C77.8691 75.7798 77.6447 75.5938 77.4657 75.3438C77.2896 75.0938 77.2015 74.7784 77.2015 74.3977V67.8864ZM81.1177 76V69.4545H82.0893V70.4432H82.1575C82.2768 70.1193 82.4927 69.8565 82.8052 69.6548C83.1177 69.4531 83.47 69.3523 83.862 69.3523C83.9359 69.3523 84.0282 69.3537 84.139 69.3565C84.2498 69.3594 84.3336 69.3636 84.3904 69.3693V70.392C84.3564 70.3835 84.2782 70.3707 84.1561 70.3537C84.0368 70.3338 83.9103 70.3239 83.7768 70.3239C83.4586 70.3239 83.1745 70.3906 82.9245 70.5241C82.6774 70.6548 82.4814 70.8366 82.3365 71.0696C82.1944 71.2997 82.1234 71.5625 82.1234 71.858V76H81.1177ZM89.7076 73.3239V69.4545H90.7132V76H89.7076V74.892H89.6394C89.486 75.2244 89.2473 75.5071 88.9235 75.7401C88.5996 75.9702 88.1905 76.0852 87.6962 76.0852C87.2871 76.0852 86.9235 75.9957 86.6053 75.8168C86.2871 75.6349 86.0371 75.3622 85.8553 74.9986C85.6735 74.6321 85.5826 74.1705 85.5826 73.6136V69.4545H86.5882V73.5455C86.5882 74.0227 86.7218 74.4034 86.9888 74.6875C87.2587 74.9716 87.6025 75.1136 88.0201 75.1136C88.2701 75.1136 88.5243 75.0497 88.7828 74.9219C89.0442 74.794 89.263 74.598 89.4391 74.3338C89.6181 74.0696 89.7076 73.733 89.7076 73.3239ZM95.2143 76.1364C94.6007 76.1364 94.0723 75.9915 93.6291 75.7017C93.1859 75.4119 92.845 75.0128 92.6064 74.5043C92.3677 73.9957 92.2484 73.4148 92.2484 72.7614C92.2484 72.0966 92.3706 71.5099 92.6149 71.0014C92.862 70.4901 93.2058 70.0909 93.6461 69.804C94.0893 69.5142 94.6064 69.3693 95.1973 69.3693C95.6575 69.3693 96.0723 69.4545 96.4416 69.625C96.8109 69.7955 97.1135 70.0341 97.3493 70.3409C97.585 70.6477 97.7314 71.0057 97.7882 71.4148H96.7825C96.7058 71.1165 96.5353 70.8523 96.2711 70.6222C96.0098 70.3892 95.6575 70.2727 95.2143 70.2727C94.8223 70.2727 94.4785 70.375 94.1831 70.5795C93.8904 70.7812 93.6618 71.0668 93.497 71.4361C93.335 71.8026 93.2541 72.233 93.2541 72.7273C93.2541 73.233 93.3336 73.6733 93.4927 74.0483C93.6547 74.4233 93.8819 74.7145 94.1745 74.9219C94.47 75.1293 94.8166 75.233 95.2143 75.233C95.4757 75.233 95.7129 75.1875 95.926 75.0966C96.139 75.0057 96.3194 74.875 96.4672 74.7045C96.6149 74.5341 96.72 74.3295 96.7825 74.0909H97.7882C97.7314 74.4773 97.5907 74.8253 97.3663 75.1349C97.1447 75.4418 96.8507 75.6861 96.4842 75.8679C96.1206 76.0469 95.6973 76.1364 95.2143 76.1364ZM102.105 69.4545V70.3068H98.7129V69.4545H102.105ZM99.7015 67.8864H100.707V74.125C100.707 74.4091 100.748 74.6222 100.831 74.7642C100.916 74.9034 101.024 74.9972 101.155 75.0455C101.288 75.0909 101.429 75.1136 101.577 75.1136C101.687 75.1136 101.778 75.108 101.849 75.0966C101.92 75.0824 101.977 75.071 102.02 75.0625L102.224 75.9659C102.156 75.9915 102.061 76.017 101.939 76.0426C101.817 76.071 101.662 76.0852 101.474 76.0852C101.19 76.0852 100.912 76.0241 100.639 75.902C100.369 75.7798 100.145 75.5938 99.9657 75.3438C99.7896 75.0938 99.7015 74.7784 99.7015 74.3977V67.8864ZM107.743 73.3239V69.4545H108.748V76H107.743V74.892H107.675C107.521 75.2244 107.282 75.5071 106.959 75.7401C106.635 75.9702 106.226 76.0852 105.731 76.0852C105.322 76.0852 104.959 75.9957 104.64 75.8168C104.322 75.6349 104.072 75.3622 103.89 74.9986C103.709 74.6321 103.618 74.1705 103.618 73.6136V69.4545H104.623V73.5455C104.623 74.0227 104.757 74.4034 105.024 74.6875C105.294 74.9716 105.638 75.1136 106.055 75.1136C106.305 75.1136 106.559 75.0497 106.818 74.9219C107.079 74.794 107.298 74.598 107.474 74.3338C107.653 74.0696 107.743 73.733 107.743 73.3239ZM110.59 76V69.4545H111.562V70.4432H111.63C111.749 70.1193 111.965 69.8565 112.278 69.6548C112.59 69.4531 112.943 69.3523 113.335 69.3523C113.409 69.3523 113.501 69.3537 113.612 69.3565C113.722 69.3594 113.806 69.3636 113.863 69.3693V70.392C113.829 70.3835 113.751 70.3707 113.629 70.3537C113.509 70.3338 113.383 70.3239 113.249 70.3239C112.931 70.3239 112.647 70.3906 112.397 70.5241C112.15 70.6548 111.954 70.8366 111.809 71.0696C111.667 71.2997 111.596 71.5625 111.596 71.858V76H110.59ZM117.6 76.1364C116.97 76.1364 116.426 75.9972 115.968 75.7188C115.514 75.4375 115.163 75.0455 114.916 74.5426C114.671 74.0369 114.549 73.4489 114.549 72.7784C114.549 72.108 114.671 71.517 114.916 71.0057C115.163 70.4915 115.507 70.0909 115.947 69.804C116.39 69.5142 116.907 69.3693 117.498 69.3693C117.839 69.3693 118.176 69.4261 118.508 69.5398C118.84 69.6534 119.143 69.8381 119.416 70.0938C119.688 70.3466 119.906 70.6818 120.068 71.0994C120.23 71.517 120.311 72.0312 120.311 72.642V73.0682H115.265V72.1989H119.288C119.288 71.8295 119.214 71.5 119.066 71.2102C118.921 70.9205 118.714 70.6918 118.444 70.5241C118.177 70.3565 117.862 70.2727 117.498 70.2727C117.097 70.2727 116.751 70.3722 116.458 70.571C116.169 70.767 115.945 71.0227 115.789 71.3381C115.633 71.6534 115.555 71.9915 115.555 72.3523V72.9318C115.555 73.4261 115.64 73.8452 115.811 74.1889C115.984 74.5298 116.224 74.7898 116.531 74.9688C116.838 75.1449 117.194 75.233 117.6 75.233C117.865 75.233 118.103 75.196 118.316 75.1222C118.532 75.0455 118.718 74.9318 118.874 74.7812C119.031 74.6278 119.151 74.4375 119.237 74.2102L120.208 74.483C120.106 74.8125 119.934 75.1023 119.693 75.3523C119.451 75.5994 119.153 75.7926 118.798 75.9318C118.443 76.0682 118.044 76.1364 117.6 76.1364Z" fill="#1D1D1F"/>
<rect width="21.8824" height="13.4118" rx="6.70588" transform="matrix(-1 0 0 1 92 28)" fill="#2F3A4E"/>
<rect x="-1.5" y="1.5" width="13.9412" height="7.58823" rx="3.79412" transform="matrix(-1 0 0 1 56.5312 16)" stroke="#2F3A4E" stroke-width="3"/>
<rect x="-1.5" y="1.5" width="13.9412" height="7.58823" rx="3.79412" transform="matrix(-1 0 0 1 56.5312 41.4121)" stroke="#2F3A4E" stroke-width="3"/>
<path d="M61.6457 23.1475H58.8222V20.1475H61.6457V23.1475ZM58.8222 45.5592H61.6457V48.5592H58.8222V45.5592ZM61.6457 45.5592C67.8345 45.5592 72.8516 40.5422 72.8516 34.3533H75.8516C75.8516 42.199 69.4914 48.5592 61.6457 48.5592V45.5592ZM61.6457 20.1475C69.4914 20.1475 75.8516 26.5077 75.8516 34.3533H72.8516C72.8516 28.1645 67.8345 23.1475 61.6457 23.1475V20.1475Z" fill="#2F3A4E"/>
</svg>
