<svg width="134" height="90" viewBox="0 0 134 90" fill="none" xmlns="http://www.w3.org/2000/svg">
<rect width="134" height="90" rx="8" fill="#F2F4F8"/>
<path d="M40.0581 68.2102V67.2727H46.6035V68.2102H43.8592V76H42.8024V68.2102H40.0581ZM48.0982 76V69.4545H49.1039V76H48.0982ZM48.6096 68.3636C48.4135 68.3636 48.2445 68.2969 48.1025 68.1634C47.9632 68.0298 47.8936 67.8693 47.8936 67.6818C47.8936 67.4943 47.9632 67.3338 48.1025 67.2003C48.2445 67.0668 48.4135 67 48.6096 67C48.8056 67 48.9732 67.0668 49.1124 67.2003C49.2544 67.3338 49.3255 67.4943 49.3255 67.6818C49.3255 67.8693 49.2544 68.0298 49.1124 68.1634C48.9732 68.2969 48.8056 68.3636 48.6096 68.3636ZM50.9458 76V69.4545H51.9174V70.4773H52.0027C52.139 70.1278 52.3592 69.8565 52.6632 69.6634C52.9672 69.4673 53.3322 69.3693 53.7583 69.3693C54.1902 69.3693 54.5495 69.4673 54.8365 69.6634C55.1262 69.8565 55.3521 70.1278 55.514 70.4773H55.5822C55.7498 70.1392 56.0012 69.8707 56.3365 69.6719C56.6717 69.4702 57.0737 69.3693 57.5424 69.3693C58.1277 69.3693 58.6064 69.5526 58.9785 69.919C59.3507 70.2827 59.5368 70.8494 59.5368 71.6193V76H58.5311V71.6193C58.5311 71.1364 58.399 70.7912 58.1348 70.5838C57.8706 70.3764 57.5595 70.2727 57.2015 70.2727C56.7413 70.2727 56.3848 70.4119 56.1319 70.6903C55.8791 70.9659 55.7527 71.3153 55.7527 71.7386V76H54.7299V71.517C54.7299 71.1449 54.6092 70.8452 54.3677 70.6179C54.1262 70.3878 53.8152 70.2727 53.4345 70.2727C53.1731 70.2727 52.9288 70.3423 52.7015 70.4815C52.4771 70.6207 52.2953 70.8139 52.1561 71.0611C52.0197 71.3054 51.9515 71.5881 51.9515 71.9091V76H50.9458ZM64.1199 76.1364C63.4892 76.1364 62.9451 75.9972 62.4877 75.7188C62.0332 75.4375 61.6824 75.0455 61.4352 74.5426C61.1909 74.0369 61.0687 73.4489 61.0687 72.7784C61.0687 72.108 61.1909 71.517 61.4352 71.0057C61.6824 70.4915 62.0261 70.0909 62.4664 69.804C62.9096 69.5142 63.4267 69.3693 64.0176 69.3693C64.3585 69.3693 64.6951 69.4261 65.0275 69.5398C65.3599 69.6534 65.6625 69.8381 65.9352 70.0938C66.2079 70.3466 66.4252 70.6818 66.5872 71.0994C66.7491 71.517 66.8301 72.0312 66.8301 72.642V73.0682H61.7846V72.1989H65.8074C65.8074 71.8295 65.7335 71.5 65.5858 71.2102C65.4409 70.9205 65.2335 70.6918 64.9636 70.5241C64.6966 70.3565 64.3812 70.2727 64.0176 70.2727C63.617 70.2727 63.2704 70.3722 62.9778 70.571C62.688 70.767 62.465 71.0227 62.3088 71.3381C62.1525 71.6534 62.0744 71.9915 62.0744 72.3523V72.9318C62.0744 73.4261 62.1596 73.8452 62.3301 74.1889C62.5034 74.5298 62.7434 74.7898 63.0502 74.9688C63.3571 75.1449 63.7136 75.233 64.1199 75.233C64.3841 75.233 64.6227 75.196 64.8358 75.1222C65.0517 75.0455 65.2377 74.9318 65.394 74.7812C65.5502 74.6278 65.671 74.4375 65.7562 74.2102L66.7278 74.483C66.6255 74.8125 66.4537 75.1023 66.2122 75.3523C65.9707 75.5994 65.6724 75.7926 65.3173 75.9318C64.9622 76.0682 64.563 76.1364 64.1199 76.1364ZM72.2292 76H71.1213L74.3258 67.2727H75.4167L78.6213 76H77.5133L74.9054 68.6534H74.8372L72.2292 76ZM72.6383 72.5909H77.1042V73.5284H72.6383V72.5909ZM80.5943 69.4545L82.1625 72.1307L83.7306 69.4545H84.8897L82.7761 72.7273L84.8897 76H83.7306L82.1625 73.4602L80.5943 76H79.4352L81.5147 72.7273L79.4352 69.4545H80.5943ZM86.3248 76V69.4545H87.3304V76H86.3248ZM86.8361 68.3636C86.6401 68.3636 86.4711 68.2969 86.329 68.1634C86.1898 68.0298 86.1202 67.8693 86.1202 67.6818C86.1202 67.4943 86.1898 67.3338 86.329 67.2003C86.4711 67.0668 86.6401 67 86.8361 67C87.0321 67 87.1998 67.0668 87.339 67.2003C87.481 67.3338 87.552 67.4943 87.552 67.6818C87.552 67.8693 87.481 68.0298 87.339 68.1634C87.1998 68.2969 87.0321 68.3636 86.8361 68.3636ZM93.8088 70.9205L92.9054 71.1761C92.8485 71.0256 92.7647 70.8793 92.6539 70.7372C92.546 70.5923 92.3983 70.473 92.2108 70.3793C92.0233 70.2855 91.7832 70.2386 91.4906 70.2386C91.09 70.2386 90.7562 70.331 90.4892 70.5156C90.225 70.6974 90.0929 70.929 90.0929 71.2102C90.0929 71.4602 90.1838 71.6577 90.3656 71.8026C90.5474 71.9474 90.8315 72.0682 91.2179 72.1648L92.1895 72.4034C92.7747 72.5455 93.2108 72.7628 93.4977 73.0554C93.7846 73.3452 93.9281 73.7187 93.9281 74.1761C93.9281 74.5511 93.8201 74.8864 93.6042 75.1818C93.3912 75.4773 93.0929 75.7102 92.7093 75.8807C92.3258 76.0511 91.8798 76.1364 91.3713 76.1364C90.7037 76.1364 90.1511 75.9915 89.7136 75.7017C89.2761 75.4119 88.9991 74.9886 88.8826 74.4318L89.8372 74.1932C89.9281 74.5455 90.1 74.8097 90.3528 74.9858C90.6085 75.1619 90.9423 75.25 91.3542 75.25C91.823 75.25 92.1951 75.1506 92.4707 74.9517C92.7491 74.75 92.8883 74.5085 92.8883 74.2273C92.8883 74 92.8088 73.8097 92.6497 73.6562C92.4906 73.5 92.2463 73.3835 91.9167 73.3068L90.8258 73.0511C90.2264 72.9091 89.786 72.6889 89.5048 72.3906C89.2264 72.0895 89.0872 71.7131 89.0872 71.2614C89.0872 70.892 89.1909 70.5653 89.3983 70.2812C89.6085 69.9972 89.894 69.7741 90.2548 69.6122C90.6184 69.4503 91.0304 69.3693 91.4906 69.3693C92.1383 69.3693 92.6468 69.5114 93.0162 69.7955C93.3883 70.0795 93.6525 70.4545 93.8088 70.9205Z" fill="#1D1D1F"/>
<rect x="43" y="30" width="16" height="12" rx="6" fill="#2F3A4E"/>
<rect x="65.0703" y="33" width="7.28571" height="6" rx="3" stroke="#2F3A4E" stroke-width="3"/>
<rect x="81.0078" y="33" width="7.28571" height="6" rx="3" stroke="#2F3A4E" stroke-width="3"/>
<path d="M55.8555 36.4043L64.4269 36.4043" stroke="#2F3A4E" stroke-width="3" stroke-linecap="round"/>
<path d="M73 36.4043H80" stroke="#2F3A4E" stroke-width="3" stroke-linecap="round"/>
</svg>
