<svg width="40" height="40" viewBox="0 0 40 40" fill="none" xmlns="http://www.w3.org/2000/svg">
<path d="M7.32227 31.1641L6.61516 30.457L5.43546 31.6367L7.03196 32.1211L7.32227 31.1641ZM11.9775 24.3583L10.9969 24.1622L11.9775 24.3583ZM15.9309 23.1861L15.3016 23.9633L15.9309 23.1861ZM18.9174 27.6363L19.8556 27.9824L18.9174 27.6363ZM8.02937 31.8712C8.8994 31.0012 10.0075 29.7107 10.9485 28.4014C11.4198 27.7456 11.8593 27.0712 12.2085 26.4312C12.5505 25.8045 12.8384 25.153 12.9581 24.5545L10.9969 24.1622C10.9356 24.4689 10.7584 24.9133 10.4529 25.4731C10.1547 26.0196 9.76416 26.6223 9.3244 27.2342C8.4432 28.4603 7.40471 29.6675 6.61516 30.457L8.02937 31.8712ZM12.9581 24.5545C13.0193 24.2483 13.2848 23.9877 14.0609 23.9177C14.4111 23.8861 14.7716 23.91 15.0588 23.957C15.2016 23.9805 15.3112 24.0072 15.3807 24.0287C15.4939 24.0637 15.419 24.0583 15.3016 23.9633L16.5601 22.4089C16.3549 22.2427 16.1028 22.1585 15.9718 22.118C15.7972 22.064 15.5956 22.0184 15.3823 21.9834C14.9572 21.9137 14.4257 21.8766 13.8811 21.9258C12.8676 22.0173 11.3323 22.4853 10.9969 24.1622L12.9581 24.5545ZM15.3016 23.9633C15.2924 23.9558 15.318 23.9766 15.3879 24.0551C15.4509 24.126 15.5296 24.2205 15.6241 24.3391C15.8136 24.577 16.0409 24.8788 16.297 25.2204C16.7972 25.8876 17.4041 26.7034 17.9465 27.3263L19.4547 26.0127C18.9716 25.458 18.4149 24.7113 17.8973 24.0208C17.6445 23.6836 17.3993 23.3577 17.1883 23.0928C16.9994 22.8558 16.7697 22.5786 16.5601 22.4089L15.3016 23.9633ZM17.9792 27.2902C17.6228 28.2565 16.8493 29.5026 15.334 30.2584C13.8254 31.0108 11.4144 31.3605 7.61257 30.2072L7.03196 32.1211C11.1617 33.3739 14.1298 33.094 16.2267 32.0481C18.317 31.0055 19.3753 29.2846 19.8556 27.9824L17.9792 27.2902ZM17.9465 27.3263C17.9561 27.3372 17.9627 27.3474 17.9668 27.3551C17.9709 27.3629 17.9715 27.3663 17.971 27.3642C17.9704 27.3619 17.9687 27.3532 17.9693 27.339C17.9699 27.3243 17.973 27.3072 17.9792 27.2902L19.8556 27.9824C20.134 27.2278 19.868 26.4873 19.4547 26.0127L17.9465 27.3263Z" fill="#2F3A4E"/>
<path d="M19.1523 26.4717L23.6331 22.4585" stroke="#2F3A4E" stroke-width="2" stroke-linecap="round"/>
<path d="M23.1675 22.77L23.92 22.1115L23.1675 22.77ZM23.3181 22.7782L23.9951 23.5141L23.3181 22.7782ZM20.1525 19.3244L20.9051 18.6659L20.1525 19.3244ZM20.1674 19.152L20.7958 19.9299L20.1674 19.152ZM19.3999 19.9829L22.4149 23.4285L23.92 22.1115L20.9051 18.6659L19.3999 19.9829ZM23.9951 23.5141L33.7135 14.5732L32.3594 13.1014L22.641 22.0423L23.9951 23.5141ZM29.8262 10.0652L19.5391 18.374L20.7958 19.9299L31.0829 11.6211L29.8262 10.0652ZM33.803 10.2761C32.7263 9.19944 31.0108 9.10844 29.8262 10.0652L31.0829 11.6211C31.4719 11.3069 32.0352 11.3368 32.3888 11.6903L33.803 10.2761ZM33.7135 14.5732C34.9596 13.4268 35.0003 11.4734 33.803 10.2761L32.3888 11.6903C32.7819 12.0835 32.7686 12.7249 32.3594 13.1014L33.7135 14.5732ZM22.4149 23.4285C22.824 23.8961 23.5379 23.9348 23.9951 23.5141L22.641 22.0423C23.0111 21.7018 23.5889 21.7331 23.92 22.1115L22.4149 23.4285ZM20.9051 18.6659C21.2341 19.0419 21.1844 19.616 20.7958 19.9299L19.5391 18.374C19.0444 18.7736 18.9812 19.5043 19.3999 19.9829L20.9051 18.6659Z" fill="#2F3A4E"/>
<path d="M20.6753 23.868L18.5605 21.4658" stroke="#2F3A4E" stroke-width="2" stroke-linecap="round"/>
<path d="M16.2079 27.4268C15.9061 27.9688 14.9405 29.0529 13.4922 29.0529" stroke="#2F3A4E" stroke-width="1.5" stroke-linecap="round"/>
<path d="M13 2C13 9.2 12.2 10 5 10C12.2 10 13 10.8 13 18C13 10.8 13.8 10 21 10C13.8 10 13 9.2 13 2Z" fill="#2F3A4E"/>
<path d="M30 24C30 28.5 29.5 29 25 29C29.5 29 30 29.5 30 34C30 29.5 30.5 29 35 29C30.5 29 30 28.5 30 24Z" fill="#2F3A4E"/>
</svg>
