<svg width="134" height="90" viewBox="0 0 134 90" fill="none" xmlns="http://www.w3.org/2000/svg">
<rect x="1" y="1" width="132" height="88" rx="7" fill="#F2F4F8" stroke="#5452F6" stroke-width="2"/>
<path d="M11.2033 76V67.2727H14.1522C14.834 67.2727 15.3936 67.3892 15.8311 67.6222C16.2686 67.8523 16.5925 68.169 16.8027 68.5724C17.013 68.9759 17.1181 69.4347 17.1181 69.9489C17.1181 70.4631 17.013 70.919 16.8027 71.3168C16.5925 71.7145 16.2701 72.027 15.8354 72.2543C15.4007 72.4787 14.8453 72.5909 14.1692 72.5909H11.7828V71.6364H14.1351C14.601 71.6364 14.976 71.5682 15.2601 71.4318C15.5471 71.2955 15.7544 71.1023 15.8823 70.8523C16.013 70.5994 16.0783 70.2983 16.0783 69.9489C16.0783 69.5994 16.013 69.294 15.8823 69.0327C15.7516 68.7713 15.5428 68.5696 15.2559 68.4276C14.9689 68.2827 14.5897 68.2102 14.1181 68.2102H12.2601V76H11.2033ZM15.3113 72.0795L17.459 76H16.2317L14.1181 72.0795H15.3113ZM18.7427 76V69.4545H19.7484V76H18.7427ZM19.2541 68.3636C19.0581 68.3636 18.889 68.2969 18.747 68.1634C18.6078 68.0298 18.5382 67.8693 18.5382 67.6818C18.5382 67.4943 18.6078 67.3338 18.747 67.2003C18.889 67.0668 19.0581 67 19.2541 67C19.4501 67 19.6177 67.0668 19.7569 67.2003C19.899 67.3338 19.97 67.4943 19.97 67.6818C19.97 67.8693 19.899 68.0298 19.7569 68.1634C19.6177 68.2969 19.4501 68.3636 19.2541 68.3636ZM24.2324 78.5909C23.7466 78.5909 23.329 78.5284 22.9796 78.4034C22.6301 78.2812 22.339 78.1193 22.106 77.9176C21.8759 77.7188 21.6926 77.5057 21.5563 77.2784L22.3574 76.7159C22.4483 76.8352 22.5634 76.9716 22.7026 77.125C22.8418 77.2812 23.0321 77.4162 23.2736 77.5298C23.5179 77.6463 23.8375 77.7045 24.2324 77.7045C24.7608 77.7045 25.1969 77.5767 25.5407 77.321C25.8844 77.0653 26.0563 76.6648 26.0563 76.1193V74.7898H25.9711C25.8972 74.9091 25.7921 75.0568 25.6557 75.233C25.5222 75.4062 25.329 75.5611 25.0762 75.6974C24.8262 75.831 24.4881 75.8977 24.062 75.8977C23.5336 75.8977 23.0591 75.7727 22.6387 75.5227C22.2211 75.2727 21.8901 74.9091 21.6458 74.4318C21.4043 73.9545 21.2836 73.375 21.2836 72.6932C21.2836 72.0227 21.4015 71.4389 21.6373 70.9418C21.873 70.4418 22.2012 70.0554 22.6216 69.7827C23.0421 69.5071 23.5279 69.3693 24.079 69.3693C24.5051 69.3693 24.8432 69.4403 25.0932 69.5824C25.3461 69.7216 25.5392 69.8807 25.6728 70.0597C25.8091 70.2358 25.9142 70.3807 25.9881 70.4943H26.0904V69.4545H27.062V76.1875C27.062 76.75 26.9341 77.2074 26.6784 77.5597C26.4256 77.9148 26.0847 78.1747 25.6557 78.3395C25.2296 78.5071 24.7551 78.5909 24.2324 78.5909ZM24.1983 74.9943C24.6017 74.9943 24.9426 74.902 25.2211 74.7173C25.4995 74.5327 25.7111 74.267 25.856 73.9205C26.0009 73.5739 26.0733 73.1591 26.0733 72.6761C26.0733 72.2045 26.0023 71.7884 25.8603 71.4276C25.7182 71.0668 25.508 70.7841 25.2296 70.5795C24.9512 70.375 24.6074 70.2727 24.1983 70.2727C23.7722 70.2727 23.4171 70.3807 23.133 70.5966C22.8517 70.8125 22.6401 71.1023 22.498 71.4659C22.3588 71.8295 22.2892 72.233 22.2892 72.6761C22.2892 73.1307 22.3603 73.5327 22.5023 73.8821C22.6472 74.2287 22.8603 74.5014 23.1415 74.7003C23.4256 74.8963 23.7779 74.9943 24.1983 74.9943ZM29.9086 72.0625V76H28.9029V67.2727H29.9086V70.4773H29.9938C30.1472 70.1392 30.3773 69.8707 30.6841 69.6719C30.9938 69.4702 31.4057 69.3693 31.9199 69.3693C32.3659 69.3693 32.7566 69.4588 33.0918 69.6378C33.427 69.8139 33.687 70.0852 33.8716 70.4517C34.0591 70.8153 34.1529 71.2784 34.1529 71.8409V76H33.1472V71.9091C33.1472 71.3892 33.0123 70.9872 32.7424 70.7031C32.4753 70.4162 32.1046 70.2727 31.6301 70.2727C31.3006 70.2727 31.0051 70.3423 30.7438 70.4815C30.4853 70.6207 30.2807 70.8239 30.1301 71.0909C29.9824 71.358 29.9086 71.6818 29.9086 72.0625ZM38.8393 69.4545V70.3068H35.4473V69.4545H38.8393ZM36.4359 67.8864H37.4416V74.125C37.4416 74.4091 37.4828 74.6222 37.5652 74.7642C37.6504 74.9034 37.7583 74.9972 37.889 75.0455C38.0225 75.0909 38.1632 75.1136 38.3109 75.1136C38.4217 75.1136 38.5126 75.108 38.5836 75.0966C38.6547 75.0824 38.7115 75.071 38.7541 75.0625L38.9586 75.9659C38.8904 75.9915 38.7953 76.017 38.6731 76.0426C38.551 76.071 38.3961 76.0852 38.2086 76.0852C37.9245 76.0852 37.6461 76.0241 37.3734 75.902C37.1035 75.7798 36.8791 75.5938 36.7001 75.3438C36.524 75.0938 36.4359 74.7784 36.4359 74.3977V67.8864ZM48.6362 69.4545C48.585 69.0227 48.3777 68.6875 48.014 68.4489C47.6504 68.2102 47.2044 68.0909 46.676 68.0909C46.2896 68.0909 45.9515 68.1534 45.6618 68.2784C45.3748 68.4034 45.1504 68.5753 44.9885 68.794C44.8294 69.0128 44.7498 69.2614 44.7498 69.5398C44.7498 69.7727 44.8052 69.973 44.916 70.1406C45.0297 70.3054 45.1745 70.4432 45.3507 70.554C45.5268 70.6619 45.7115 70.7514 45.9047 70.8224C46.0978 70.8906 46.2754 70.946 46.4373 70.9886L47.3237 71.2273C47.551 71.2869 47.8038 71.3693 48.0822 71.4744C48.3635 71.5795 48.6319 71.723 48.8876 71.9048C49.1461 72.0838 49.3592 72.3139 49.5268 72.5952C49.6944 72.8764 49.7782 73.2216 49.7782 73.6307C49.7782 74.1023 49.6547 74.5284 49.4075 74.9091C49.1632 75.2898 48.8052 75.5923 48.3336 75.8168C47.8649 76.0412 47.2953 76.1534 46.6248 76.1534C45.9998 76.1534 45.4586 76.0526 45.0012 75.8509C44.5467 75.6491 44.1887 75.3679 43.9274 75.0071C43.6689 74.6463 43.5225 74.2273 43.4885 73.75H44.5794C44.6078 74.0795 44.7186 74.3523 44.9118 74.5682C45.1078 74.7812 45.3549 74.9403 45.6532 75.0455C45.9544 75.1477 46.2782 75.1989 46.6248 75.1989C47.0282 75.1989 47.3904 75.1335 47.7115 75.0028C48.0325 74.8693 48.2868 74.6847 48.4743 74.4489C48.6618 74.2102 48.7555 73.9318 48.7555 73.6136C48.7555 73.3239 48.6745 73.0881 48.5126 72.9062C48.3507 72.7244 48.1376 72.5767 47.8734 72.4631C47.6092 72.3494 47.3237 72.25 47.0169 72.1648L45.943 71.858C45.2612 71.6619 44.7214 71.3821 44.3237 71.0185C43.926 70.6548 43.7271 70.179 43.7271 69.5909C43.7271 69.1023 43.8592 68.6761 44.1234 68.3125C44.3904 67.946 44.7484 67.6619 45.1973 67.4602C45.649 67.2557 46.1532 67.1534 46.71 67.1534C47.2725 67.1534 47.7725 67.2543 48.21 67.456C48.6475 67.6548 48.9941 67.9276 49.2498 68.2741C49.5083 68.6207 49.6447 69.0142 49.6589 69.4545H48.6362ZM51.3794 76V69.4545H52.3851V76H51.3794ZM51.8908 68.3636C51.6948 68.3636 51.5257 68.2969 51.3837 68.1634C51.2445 68.0298 51.1749 67.8693 51.1749 67.6818C51.1749 67.4943 51.2445 67.3338 51.3837 67.2003C51.5257 67.0668 51.6948 67 51.8908 67C52.0868 67 52.2544 67.0668 52.3936 67.2003C52.5357 67.3338 52.6067 67.4943 52.6067 67.6818C52.6067 67.8693 52.5357 68.0298 52.3936 68.1634C52.2544 68.2969 52.0868 68.3636 51.8908 68.3636ZM56.6987 76.1364C56.1532 76.1364 55.6717 75.9986 55.2541 75.723C54.8365 75.4446 54.5098 75.0526 54.274 74.5469C54.0382 74.0384 53.9203 73.4375 53.9203 72.7443C53.9203 72.0568 54.0382 71.4602 54.274 70.9545C54.5098 70.4489 54.8379 70.0582 55.2583 69.7827C55.6788 69.5071 56.1646 69.3693 56.7157 69.3693C57.1419 69.3693 57.4785 69.4403 57.7257 69.5824C57.9757 69.7216 58.166 69.8807 58.2967 70.0597C58.4302 70.2358 58.5339 70.3807 58.6078 70.4943H58.693V67.2727H59.6987V76H58.7271V74.9943H58.6078C58.5339 75.1136 58.4288 75.2642 58.2924 75.446C58.1561 75.625 57.9615 75.7855 57.7086 75.9276C57.4558 76.0668 57.1191 76.1364 56.6987 76.1364ZM56.835 75.233C57.2385 75.233 57.5794 75.1278 57.8578 74.9176C58.1362 74.7045 58.3478 74.4105 58.4927 74.0355C58.6376 73.6577 58.71 73.2216 58.71 72.7273C58.71 72.2386 58.639 71.8111 58.497 71.4446C58.3549 71.0753 58.1447 70.7884 57.8663 70.5838C57.5879 70.3764 57.2441 70.2727 56.835 70.2727C56.4089 70.2727 56.0538 70.3821 55.7697 70.6009C55.4885 70.8168 55.2768 71.1108 55.1348 71.483C54.9956 71.8523 54.926 72.267 54.926 72.7273C54.926 73.1932 54.997 73.6165 55.139 73.9972C55.2839 74.375 55.497 74.6761 55.7782 74.9006C56.0623 75.1222 56.4146 75.233 56.835 75.233ZM64.4245 76.1364C63.7939 76.1364 63.2498 75.9972 62.7924 75.7188C62.3379 75.4375 61.987 75.0455 61.7399 74.5426C61.4956 74.0369 61.3734 73.4489 61.3734 72.7784C61.3734 72.108 61.4956 71.517 61.7399 71.0057C61.987 70.4915 62.3308 70.0909 62.7711 69.804C63.2143 69.5142 63.7314 69.3693 64.3223 69.3693C64.6632 69.3693 64.9998 69.4261 65.3322 69.5398C65.6646 69.6534 65.9672 69.8381 66.2399 70.0938C66.5126 70.3466 66.7299 70.6818 66.8919 71.0994C67.0538 71.517 67.1348 72.0312 67.1348 72.642V73.0682H62.0893V72.1989H66.112C66.112 71.8295 66.0382 71.5 65.8904 71.2102C65.7456 70.9205 65.5382 70.6918 65.2683 70.5241C65.0012 70.3565 64.6859 70.2727 64.3223 70.2727C63.9217 70.2727 63.5751 70.3722 63.2825 70.571C62.9927 70.767 62.7697 71.0227 62.6135 71.3381C62.4572 71.6534 62.3791 71.9915 62.3791 72.3523V72.9318C62.3791 73.4261 62.4643 73.8452 62.6348 74.1889C62.8081 74.5298 63.0481 74.7898 63.3549 74.9688C63.6618 75.1449 64.0183 75.233 64.4245 75.233C64.6887 75.233 64.9274 75.196 65.1404 75.1222C65.3564 75.0455 65.5424 74.9318 65.6987 74.7812C65.8549 74.6278 65.9757 74.4375 66.0609 74.2102L67.0325 74.483C66.9302 74.8125 66.7583 75.1023 66.5169 75.3523C66.2754 75.5994 65.9771 75.7926 65.622 75.9318C65.2669 76.0682 64.8677 76.1364 64.4245 76.1364ZM76.9487 69.4545C76.8975 69.0227 76.6902 68.6875 76.3265 68.4489C75.9629 68.2102 75.5169 68.0909 74.9885 68.0909C74.6021 68.0909 74.264 68.1534 73.9743 68.2784C73.6873 68.4034 73.4629 68.5753 73.301 68.794C73.1419 69.0128 73.0623 69.2614 73.0623 69.5398C73.0623 69.7727 73.1177 69.973 73.2285 70.1406C73.3422 70.3054 73.487 70.4432 73.6632 70.554C73.8393 70.6619 74.024 70.7514 74.2172 70.8224C74.4103 70.8906 74.5879 70.946 74.7498 70.9886L75.6362 71.2273C75.8635 71.2869 76.1163 71.3693 76.3947 71.4744C76.676 71.5795 76.9444 71.723 77.2001 71.9048C77.4586 72.0838 77.6717 72.3139 77.8393 72.5952C78.0069 72.8764 78.0907 73.2216 78.0907 73.6307C78.0907 74.1023 77.9672 74.5284 77.72 74.9091C77.4757 75.2898 77.1177 75.5923 76.6461 75.8168C76.1774 76.0412 75.6078 76.1534 74.9373 76.1534C74.3123 76.1534 73.7711 76.0526 73.3137 75.8509C72.8592 75.6491 72.5012 75.3679 72.2399 75.0071C71.9814 74.6463 71.835 74.2273 71.801 73.75H72.8919C72.9203 74.0795 73.0311 74.3523 73.2243 74.5682C73.4203 74.7812 73.6674 74.9403 73.9657 75.0455C74.2669 75.1477 74.5907 75.1989 74.9373 75.1989C75.3407 75.1989 75.7029 75.1335 76.024 75.0028C76.345 74.8693 76.5993 74.6847 76.7868 74.4489C76.9743 74.2102 77.068 73.9318 77.068 73.6136C77.068 73.3239 76.987 73.0881 76.8251 72.9062C76.6632 72.7244 76.4501 72.5767 76.1859 72.4631C75.9217 72.3494 75.6362 72.25 75.3294 72.1648L74.2555 71.858C73.5737 71.6619 73.0339 71.3821 72.6362 71.0185C72.2385 70.6548 72.0396 70.179 72.0396 69.5909C72.0396 69.1023 72.1717 68.6761 72.4359 68.3125C72.7029 67.946 73.0609 67.6619 73.5098 67.4602C73.9615 67.2557 74.4657 67.1534 75.0225 67.1534C75.585 67.1534 76.085 67.2543 76.5225 67.456C76.96 67.6548 77.3066 67.9276 77.5623 68.2741C77.8208 68.6207 77.9572 69.0142 77.9714 69.4545H76.9487ZM82.5385 69.4545V70.3068H79.1465V69.4545H82.5385ZM80.1351 67.8864H81.1408V74.125C81.1408 74.4091 81.182 74.6222 81.2644 74.7642C81.3496 74.9034 81.4576 74.9972 81.5882 75.0455C81.7218 75.0909 81.8624 75.1136 82.0101 75.1136C82.1209 75.1136 82.2118 75.108 82.2828 75.0966C82.3539 75.0824 82.4107 75.071 82.4533 75.0625L82.6578 75.9659C82.5897 75.9915 82.4945 76.017 82.3723 76.0426C82.2502 76.071 82.0953 76.0852 81.9078 76.0852C81.6238 76.0852 81.3453 76.0241 81.0726 75.902C80.8027 75.7798 80.5783 75.5938 80.3993 75.3438C80.2232 75.0938 80.1351 74.7784 80.1351 74.3977V67.8864ZM84.0513 76V69.4545H85.0229V70.4432H85.0911C85.2104 70.1193 85.4263 69.8565 85.7388 69.6548C86.0513 69.4531 86.4036 69.3523 86.7956 69.3523C86.8695 69.3523 86.9618 69.3537 87.0726 69.3565C87.1834 69.3594 87.2672 69.3636 87.324 69.3693V70.392C87.29 70.3835 87.2118 70.3707 87.0897 70.3537C86.9703 70.3338 86.8439 70.3239 86.7104 70.3239C86.3922 70.3239 86.1081 70.3906 85.8581 70.5241C85.611 70.6548 85.415 70.8366 85.2701 71.0696C85.128 71.2997 85.057 71.5625 85.057 71.858V76H84.0513ZM92.6412 73.3239V69.4545H93.6468V76H92.6412V74.892H92.573C92.4196 75.2244 92.1809 75.5071 91.8571 75.7401C91.5332 75.9702 91.1241 76.0852 90.6298 76.0852C90.2207 76.0852 89.8571 75.9957 89.5389 75.8168C89.2207 75.6349 88.9707 75.3622 88.7889 74.9986C88.6071 74.6321 88.5162 74.1705 88.5162 73.6136V69.4545H89.5218V73.5455C89.5218 74.0227 89.6554 74.4034 89.9224 74.6875C90.1923 74.9716 90.536 75.1136 90.9537 75.1136C91.2037 75.1136 91.4579 75.0497 91.7164 74.9219C91.9778 74.794 92.1966 74.598 92.3727 74.3338C92.5517 74.0696 92.6412 73.733 92.6412 73.3239ZM98.1479 76.1364C97.5343 76.1364 97.0059 75.9915 96.5627 75.7017C96.1195 75.4119 95.7786 75.0128 95.54 74.5043C95.3013 73.9957 95.182 73.4148 95.182 72.7614C95.182 72.0966 95.3042 71.5099 95.5485 71.0014C95.7956 70.4901 96.1394 70.0909 96.5797 69.804C97.0229 69.5142 97.54 69.3693 98.1309 69.3693C98.5911 69.3693 99.0059 69.4545 99.3752 69.625C99.7445 69.7955 100.047 70.0341 100.283 70.3409C100.519 70.6477 100.665 71.0057 100.722 71.4148H99.7161C99.6394 71.1165 99.4689 70.8523 99.2047 70.6222C98.9434 70.3892 98.5911 70.2727 98.1479 70.2727C97.7559 70.2727 97.4121 70.375 97.1167 70.5795C96.824 70.7812 96.5953 71.0668 96.4306 71.4361C96.2686 71.8026 96.1877 72.233 96.1877 72.7273C96.1877 73.233 96.2672 73.6733 96.4263 74.0483C96.5882 74.4233 96.8155 74.7145 97.1081 74.9219C97.4036 75.1293 97.7502 75.233 98.1479 75.233C98.4093 75.233 98.6465 75.1875 98.8596 75.0966C99.0726 75.0057 99.253 74.875 99.4007 74.7045C99.5485 74.5341 99.6536 74.3295 99.7161 74.0909H100.722C100.665 74.4773 100.524 74.8253 100.3 75.1349C100.078 75.4418 99.7843 75.6861 99.4178 75.8679C99.0542 76.0469 98.6309 76.1364 98.1479 76.1364ZM105.039 69.4545V70.3068H101.646V69.4545H105.039ZM102.635 67.8864H103.641V74.125C103.641 74.4091 103.682 74.6222 103.764 74.7642C103.85 74.9034 103.958 74.9972 104.088 75.0455C104.222 75.0909 104.362 75.1136 104.51 75.1136C104.621 75.1136 104.712 75.108 104.783 75.0966C104.854 75.0824 104.911 75.071 104.953 75.0625L105.158 75.9659C105.09 75.9915 104.994 76.017 104.872 76.0426C104.75 76.071 104.595 76.0852 104.408 76.0852C104.124 76.0852 103.845 76.0241 103.573 75.902C103.303 75.7798 103.078 75.5938 102.899 75.3438C102.723 75.0938 102.635 74.7784 102.635 74.3977V67.8864ZM110.676 73.3239V69.4545H111.682V76H110.676V74.892H110.608C110.455 75.2244 110.216 75.5071 109.892 75.7401C109.568 75.9702 109.159 76.0852 108.665 76.0852C108.256 76.0852 107.892 75.9957 107.574 75.8168C107.256 75.6349 107.006 75.3622 106.824 74.9986C106.642 74.6321 106.551 74.1705 106.551 73.6136V69.4545H107.557V73.5455C107.557 74.0227 107.691 74.4034 107.958 74.6875C108.227 74.9716 108.571 75.1136 108.989 75.1136C109.239 75.1136 109.493 75.0497 109.752 74.9219C110.013 74.794 110.232 74.598 110.408 74.3338C110.587 74.0696 110.676 73.733 110.676 73.3239ZM113.524 76V69.4545H114.496V70.4432H114.564C114.683 70.1193 114.899 69.8565 115.211 69.6548C115.524 69.4531 115.876 69.3523 116.268 69.3523C116.342 69.3523 116.434 69.3537 116.545 69.3565C116.656 69.3594 116.74 69.3636 116.797 69.3693V70.392C116.763 70.3835 116.684 70.3707 116.562 70.3537C116.443 70.3338 116.317 70.3239 116.183 70.3239C115.865 70.3239 115.581 70.3906 115.331 70.5241C115.084 70.6548 114.888 70.8366 114.743 71.0696C114.601 71.2997 114.53 71.5625 114.53 71.858V76H113.524ZM120.534 76.1364C119.903 76.1364 119.359 75.9972 118.902 75.7188C118.447 75.4375 118.096 75.0455 117.849 74.5426C117.605 74.0369 117.483 73.4489 117.483 72.7784C117.483 72.108 117.605 71.517 117.849 71.0057C118.096 70.4915 118.44 70.0909 118.881 69.804C119.324 69.5142 119.841 69.3693 120.432 69.3693C120.773 69.3693 121.109 69.4261 121.442 69.5398C121.774 69.6534 122.077 69.8381 122.349 70.0938C122.622 70.3466 122.839 70.6818 123.001 71.0994C123.163 71.517 123.244 72.0312 123.244 72.642V73.0682H118.199V72.1989H122.221C122.221 71.8295 122.148 71.5 122 71.2102C121.855 70.9205 121.648 70.6918 121.378 70.5241C121.111 70.3565 120.795 70.2727 120.432 70.2727C120.031 70.2727 119.684 70.3722 119.392 70.571C119.102 70.767 118.879 71.0227 118.723 71.3381C118.567 71.6534 118.488 71.9915 118.488 72.3523V72.9318C118.488 73.4261 118.574 73.8452 118.744 74.1889C118.917 74.5298 119.157 74.7898 119.464 74.9688C119.771 75.1449 120.128 75.233 120.534 75.233C120.798 75.233 121.037 75.196 121.25 75.1222C121.466 75.0455 121.652 74.9318 121.808 74.7812C121.964 74.6278 122.085 74.4375 122.17 74.2102L123.142 74.483C123.04 74.8125 122.868 75.1023 122.626 75.3523C122.385 75.5994 122.086 75.7926 121.731 75.9318C121.376 76.0682 120.977 76.1364 120.534 76.1364Z" fill="#1D1D1F"/>
<rect x="75.9688" y="17.5" width="13.9412" height="7.58823" rx="3.79412" stroke="#2F3A4E" stroke-width="3"/>
<rect x="75.9688" y="42.9121" width="13.9412" height="7.58823" rx="3.79412" stroke="#2F3A4E" stroke-width="3"/>
<path d="M72.3543 23.1475H75.1778V20.1475H72.3543V23.1475ZM75.1778 45.5592H72.3543V48.5592H75.1778V45.5592ZM72.3543 45.5592C66.1655 45.5592 61.1484 40.5422 61.1484 34.3533H58.1484C58.1484 42.199 64.5086 48.5592 72.3543 48.5592V45.5592ZM72.3543 20.1475C64.5086 20.1475 58.1484 26.5077 58.1484 34.3533H61.1484C61.1484 28.1645 66.1655 23.1475 72.3543 23.1475V20.1475Z" fill="#2F3A4E"/>
<rect x="42" y="28" width="21.8824" height="13.4118" rx="6.70588" fill="#2F3A4E"/>
</svg>
