<svg width="63" height="53" viewBox="0 0 63 53" fill="none" xmlns="http://www.w3.org/2000/svg">
<rect x="48" width="15" height="8" rx="4" fill="#D5D5FF"/>
<rect x="48" y="22" width="15" height="8" rx="4" fill="#D5D5FF"/>
<path d="M22 26H44" stroke="#65BF73" stroke-width="2" stroke-linecap="round"/>
<rect x="48" y="45" width="15" height="8" rx="4" fill="#D5D5FF"/>
<path d="M20.1527 22.4688C19.8594 22.9367 20.0009 23.5539 20.4688 23.8473C20.9367 24.1406 21.5539 23.9991 21.8473 23.5312L20.1527 22.4688ZM21.2497 22.6017L22.0969 23.1329L21.2497 22.6017ZM45.2617 5.96515C45.7947 5.82061 46.1097 5.27133 45.9651 4.7383C45.8206 4.20526 45.2713 3.89032 44.7383 4.03485L45.2617 5.96515ZM21.8473 23.5312L22.0969 23.1329L20.4024 22.0706L20.1527 22.4688L21.8473 23.5312ZM44.7383 4.03485C34.6463 6.77132 25.9567 13.2113 20.4024 22.0706L22.0969 23.1329C27.3839 14.7 35.6554 8.56993 45.2617 5.96515L44.7383 4.03485Z" fill="#65BF73"/>
<path d="M44 49V49C34.9294 47.414 27.0124 41.9257 22.345 33.988L20 30" stroke="#65BF73" stroke-width="2" stroke-linecap="round"/>
<rect y="19" width="22" height="13" rx="6.5" fill="#5452F6"/>
</svg>
