<svg width="134" height="90" viewBox="0 0 134 90" fill="none" xmlns="http://www.w3.org/2000/svg">
<rect width="134" height="90" rx="8" fill="#F2F4F8"/>
<path d="M34.687 68.2102V67.2727H41.2324V68.2102H38.4881V76H37.4313V68.2102H34.687ZM42.7271 76V69.4545H43.7328V76H42.7271ZM43.2385 68.3636C43.0424 68.3636 42.8734 68.2969 42.7314 68.1634C42.5922 68.0298 42.5225 67.8693 42.5225 67.6818C42.5225 67.4943 42.5922 67.3338 42.7314 67.2003C42.8734 67.0668 43.0424 67 43.2385 67C43.4345 67 43.6021 67.0668 43.7413 67.2003C43.8833 67.3338 43.9544 67.4943 43.9544 67.6818C43.9544 67.8693 43.8833 68.0298 43.7413 68.1634C43.6021 68.2969 43.4345 68.3636 43.2385 68.3636ZM50.2111 70.9205L49.3077 71.1761C49.2509 71.0256 49.1671 70.8793 49.0563 70.7372C48.9483 70.5923 48.8006 70.473 48.6131 70.3793C48.4256 70.2855 48.1855 70.2386 47.8929 70.2386C47.4924 70.2386 47.1586 70.331 46.8915 70.5156C46.6273 70.6974 46.4952 70.929 46.4952 71.2102C46.4952 71.4602 46.5861 71.6577 46.7679 71.8026C46.9498 71.9474 47.2338 72.0682 47.6202 72.1648L48.5918 72.4034C49.177 72.5455 49.6131 72.7628 49.9 73.0554C50.187 73.3452 50.3304 73.7187 50.3304 74.1761C50.3304 74.5511 50.2225 74.8864 50.0066 75.1818C49.7935 75.4773 49.4952 75.7102 49.1117 75.8807C48.7282 76.0511 48.2821 76.1364 47.7736 76.1364C47.106 76.1364 46.5534 75.9915 46.1159 75.7017C45.6784 75.4119 45.4015 74.9886 45.285 74.4318L46.2395 74.1932C46.3304 74.5455 46.5023 74.8097 46.7551 74.9858C47.0108 75.1619 47.3446 75.25 47.7566 75.25C48.2253 75.25 48.5975 75.1506 48.873 74.9517C49.1515 74.75 49.2907 74.5085 49.2907 74.2273C49.2907 74 49.2111 73.8097 49.052 73.6562C48.8929 73.5 48.6486 73.3835 48.3191 73.3068L47.2282 73.0511C46.6287 72.9091 46.1884 72.6889 45.9071 72.3906C45.6287 72.0895 45.4895 71.7131 45.4895 71.2614C45.4895 70.892 45.5932 70.5653 45.8006 70.2812C46.0108 69.9972 46.2963 69.7741 46.6571 69.6122C47.0208 69.4503 47.4327 69.3693 47.8929 69.3693C48.5407 69.3693 49.0492 69.5114 49.4185 69.7955C49.7907 70.0795 50.0549 70.4545 50.2111 70.9205ZM56.4806 70.9205L55.5772 71.1761C55.5204 71.0256 55.4366 70.8793 55.3258 70.7372C55.2179 70.5923 55.0701 70.473 54.8826 70.3793C54.6951 70.2855 54.4551 70.2386 54.1625 70.2386C53.7619 70.2386 53.4281 70.331 53.161 70.5156C52.8968 70.6974 52.7647 70.929 52.7647 71.2102C52.7647 71.4602 52.8556 71.6577 53.0375 71.8026C53.2193 71.9474 53.5034 72.0682 53.8897 72.1648L54.8613 72.4034C55.4466 72.5455 55.8826 72.7628 56.1696 73.0554C56.4565 73.3452 56.6 73.7187 56.6 74.1761C56.6 74.5511 56.492 74.8864 56.2761 75.1818C56.063 75.4773 55.7647 75.7102 55.3812 75.8807C54.9977 76.0511 54.5517 76.1364 54.0431 76.1364C53.3755 76.1364 52.823 75.9915 52.3855 75.7017C51.948 75.4119 51.671 74.9886 51.5545 74.4318L52.5091 74.1932C52.6 74.5455 52.7718 74.8097 53.0247 74.9858C53.2804 75.1619 53.6142 75.25 54.0261 75.25C54.4949 75.25 54.867 75.1506 55.1426 74.9517C55.421 74.75 55.5602 74.5085 55.5602 74.2273C55.5602 74 55.4806 73.8097 55.3216 73.6562C55.1625 73.5 54.9181 73.3835 54.5886 73.3068L53.4977 73.0511C52.8983 72.9091 52.4579 72.6889 52.1767 72.3906C51.8983 72.0895 51.7591 71.7131 51.7591 71.2614C51.7591 70.892 51.8627 70.5653 52.0701 70.2812C52.2804 69.9972 52.5659 69.7741 52.9267 69.6122C53.2903 69.4503 53.7022 69.3693 54.1625 69.3693C54.8102 69.3693 55.3187 69.5114 55.688 69.7955C56.0602 70.0795 56.3244 70.4545 56.4806 70.9205ZM62.2388 73.3239V69.4545H63.2445V76H62.2388V74.892H62.1706C62.0172 75.2244 61.7786 75.5071 61.4547 75.7401C61.1309 75.9702 60.7218 76.0852 60.2275 76.0852C59.8184 76.0852 59.4547 75.9957 59.1365 75.8168C58.8184 75.6349 58.5684 75.3622 58.3865 74.9986C58.2047 74.6321 58.1138 74.1705 58.1138 73.6136V69.4545H59.1195V73.5455C59.1195 74.0227 59.253 74.4034 59.5201 74.6875C59.79 74.9716 60.1337 75.1136 60.5513 75.1136C60.8013 75.1136 61.0556 75.0497 61.3141 74.9219C61.5755 74.794 61.7942 74.598 61.9703 74.3338C62.1493 74.0696 62.2388 73.733 62.2388 73.3239ZM67.8308 76.1364C67.2001 76.1364 66.6561 75.9972 66.1987 75.7188C65.7441 75.4375 65.3933 75.0455 65.1461 74.5426C64.9018 74.0369 64.7797 73.4489 64.7797 72.7784C64.7797 72.108 64.9018 71.517 65.1461 71.0057C65.3933 70.4915 65.737 70.0909 66.1774 69.804C66.6206 69.5142 67.1376 69.3693 67.7285 69.3693C68.0694 69.3693 68.4061 69.4261 68.7385 69.5398C69.0708 69.6534 69.3734 69.8381 69.6461 70.0938C69.9189 70.3466 70.1362 70.6818 70.2981 71.0994C70.46 71.517 70.541 72.0312 70.541 72.642V73.0682H65.4956V72.1989H69.5183C69.5183 71.8295 69.4444 71.5 69.2967 71.2102C69.1518 70.9205 68.9444 70.6918 68.6745 70.5241C68.4075 70.3565 68.0922 70.2727 67.7285 70.2727C67.3279 70.2727 66.9814 70.3722 66.6887 70.571C66.399 70.767 66.176 71.0227 66.0197 71.3381C65.8635 71.6534 65.7853 71.9915 65.7853 72.3523V72.9318C65.7853 73.4261 65.8706 73.8452 66.041 74.1889C66.2143 74.5298 66.4544 74.7898 66.7612 74.9688C67.068 75.1449 67.4245 75.233 67.8308 75.233C68.095 75.233 68.3336 75.196 68.5467 75.1222C68.7626 75.0455 68.9487 74.9318 69.1049 74.7812C69.2612 74.6278 69.3819 74.4375 69.4672 74.2102L70.4387 74.483C70.3365 74.8125 70.1646 75.1023 69.9231 75.3523C69.6816 75.5994 69.3833 75.7926 69.0282 75.9318C68.6731 76.0682 68.274 76.1364 67.8308 76.1364ZM75.5822 76V67.2727H76.639V71.6023H76.7413L80.6618 67.2727H82.0424L78.3777 71.2102L82.0424 76H80.764L77.7299 71.9432L76.639 73.1705V76H75.5822ZM84.2797 72.0625V76H83.274V69.4545H84.2456V70.4773H84.3308C84.4842 70.1449 84.7172 69.8778 85.0297 69.6761C85.3422 69.4716 85.7456 69.3693 86.2399 69.3693C86.6831 69.3693 87.0708 69.4602 87.4032 69.642C87.7356 69.821 87.9941 70.0938 88.1788 70.4602C88.3635 70.8239 88.4558 71.2841 88.4558 71.8409V76H87.4501V71.9091C87.4501 71.3949 87.3166 70.9943 87.0495 70.7074C86.7825 70.4176 86.416 70.2727 85.9501 70.2727C85.6291 70.2727 85.3422 70.3423 85.0893 70.4815C84.8393 70.6207 84.6419 70.8239 84.497 71.0909C84.3521 71.358 84.2797 71.6818 84.2797 72.0625ZM92.9526 76.1364C92.3617 76.1364 91.8432 75.9957 91.3972 75.7145C90.954 75.4332 90.6074 75.0398 90.3574 74.5341C90.1103 74.0284 89.9867 73.4375 89.9867 72.7614C89.9867 72.0795 90.1103 71.4844 90.3574 70.9759C90.6074 70.4673 90.954 70.0724 91.3972 69.7912C91.8432 69.5099 92.3617 69.3693 92.9526 69.3693C93.5435 69.3693 94.0605 69.5099 94.5037 69.7912C94.9498 70.0724 95.2963 70.4673 95.5435 70.9759C95.7935 71.4844 95.9185 72.0795 95.9185 72.7614C95.9185 73.4375 95.7935 74.0284 95.5435 74.5341C95.2963 75.0398 94.9498 75.4332 94.5037 75.7145C94.0605 75.9957 93.5435 76.1364 92.9526 76.1364ZM92.9526 75.233C93.4015 75.233 93.7708 75.1179 94.0605 74.8878C94.3503 74.6577 94.5648 74.3551 94.704 73.9801C94.8432 73.6051 94.9128 73.1989 94.9128 72.7614C94.9128 72.3239 94.8432 71.9162 94.704 71.5384C94.5648 71.1605 94.3503 70.8551 94.0605 70.6222C93.7708 70.3892 93.4015 70.2727 92.9526 70.2727C92.5037 70.2727 92.1344 70.3892 91.8446 70.6222C91.5549 70.8551 91.3404 71.1605 91.2012 71.5384C91.062 71.9162 90.9924 72.3239 90.9924 72.7614C90.9924 73.1989 91.062 73.6051 91.2012 73.9801C91.3404 74.3551 91.5549 74.6577 91.8446 74.8878C92.1344 75.1179 92.5037 75.233 92.9526 75.233ZM100.3 69.4545V70.3068H96.9082V69.4545H100.3ZM97.8968 67.8864H98.9025V74.125C98.9025 74.4091 98.9437 74.6222 99.0261 74.7642C99.1113 74.9034 99.2193 74.9972 99.35 75.0455C99.4835 75.0909 99.6241 75.1136 99.7718 75.1136C99.8826 75.1136 99.9735 75.108 100.045 75.0966C100.116 75.0824 100.172 75.071 100.215 75.0625L100.42 75.9659C100.351 75.9915 100.256 76.017 100.134 76.0426C100.012 76.071 99.8571 76.0852 99.6696 76.0852C99.3855 76.0852 99.1071 76.0241 98.8343 75.902C98.5645 75.7798 98.34 75.5938 98.161 75.3438C97.9849 75.0938 97.8968 74.7784 97.8968 74.3977V67.8864Z" fill="#1D1D1F"/>
<path d="M85 22L85 24.9403C85 30.0132 81.8101 34.538 77.0322 36.2426L67.7376 39.5585C66.9372 39.844 66.0628 39.844 65.2624 39.5585L55.9678 36.2426C51.1899 34.538 48 30.0132 48 24.9403L48 22" stroke="#2F3A4E" stroke-width="3" stroke-linecap="round"/>
<rect width="20" height="12" rx="6" transform="matrix(1 0 0 -1 56 52)" fill="#2F3A4E"/>
<line x1="66.5" y1="40.5" x2="66.5" y2="24.5" stroke="#2F3A4E" stroke-width="3" stroke-linecap="round"/>
</svg>
