<svg width="56" height="56" viewBox="0 0 56 56" fill="none" xmlns="http://www.w3.org/2000/svg">
<rect x="36.9688" y="11.5" width="13.9412" height="7.58823" rx="3.79412" stroke="#2F3A4E" stroke-width="3"/>
<rect x="36.9688" y="36.9121" width="13.9412" height="7.58823" rx="3.79412" stroke="#2F3A4E" stroke-width="3"/>
<path d="M33.3543 17.1475H36.1778V14.1475H33.3543V17.1475ZM36.1778 39.5592H33.3543V42.5592H36.1778V39.5592ZM33.3543 39.5592C27.1655 39.5592 22.1484 34.5422 22.1484 28.3533H19.1484C19.1484 36.199 25.5086 42.5592 33.3543 42.5592V39.5592ZM33.3543 14.1475C25.5086 14.1475 19.1484 20.5077 19.1484 28.3533H22.1484C22.1484 22.1645 27.1655 17.1475 33.3543 17.1475V14.1475Z" fill="#2F3A4E"/>
<rect x="3" y="22" width="21.8824" height="13.4118" rx="6.70588" fill="#2F3A4E"/>
</svg>
