<svg width="24" height="24" viewBox="0 0 24 24" fill="none" xmlns="http://www.w3.org/2000/svg">
<path d="M20.3402 9.57018L19.1774 11.1185C17.907 10.0936 15.9996 10.9949 15.9996 12.6417V18.7562C15.9996 18.9363 15.8536 19.0823 15.6735 19.0823H8.22936C8.04926 19.0823 7.90326 18.9363 7.90326 18.7562V12.642C7.90326 10.9897 5.98746 10.0861 4.71404 11.1185L3.55125 9.57017C3.44749 9.43201 3.46951 9.23689 3.60146 9.12533L7.29777 6H9.2485C9.28803 6 9.36378 6.01218 9.49659 6.09242C9.6354 6.17628 9.78768 6.3044 9.97211 6.48111C10.4856 6.97309 11.18 7.28473 11.9514 7.28473C12.7231 7.28473 13.4175 6.97324 13.9309 6.48108C14.1153 6.30435 14.2675 6.17624 14.4063 6.09239C14.539 6.01217 14.6148 6 14.6543 6H16.5937L20.29 9.12534C20.422 9.2369 20.444 9.43201 20.3402 9.57018Z" stroke="#373B4E" stroke-width="2"/>
</svg>
