<svg width="32" height="32" viewBox="0 0 32 32" fill="none" xmlns="http://www.w3.org/2000/svg">
<g opacity="0.2">
<path fill-rule="evenodd" clip-rule="evenodd" d="M25 14C25 14.5523 24.5523 15 24 15L12 15C10.3431 15 9 16.3431 9 18L9 22C9 22.5523 8.55228 23 8 23C7.44771 23 7 22.5523 7 22L7 18C7 15.2386 9.23858 13 12 13L24 13C24.5523 13 25 13.4477 25 14Z" fill="#373B4E"/>
<path fill-rule="evenodd" clip-rule="evenodd" d="M24.7071 13.2929C25.0976 13.6834 25.0976 14.3166 24.7071 14.7071L20.7071 18.7071C20.3166 19.0976 19.6834 19.0976 19.2929 18.7071C18.9024 18.3166 18.9024 17.6834 19.2929 17.2929L22.5858 14L19.2929 10.7071C18.9024 10.3166 18.9024 9.68342 19.2929 9.29289C19.6834 8.90237 20.3166 8.90237 20.7071 9.29289L24.7071 13.2929Z" fill="#373B4E"/>
</g>
</svg>
