<svg width="32" height="32" viewBox="0 0 32 32" fill="none" xmlns="http://www.w3.org/2000/svg">
<g opacity="0.2">
<path fill-rule="evenodd" clip-rule="evenodd" d="M7 14C7 14.5523 7.44772 15 8 15L20 15C21.6569 15 23 16.3431 23 18L23 22C23 22.5523 23.4477 23 24 23C24.5523 23 25 22.5523 25 22L25 18C25 15.2386 22.7614 13 20 13L8 13C7.44772 13 7 13.4477 7 14Z" fill="#373B4E"/>
<path fill-rule="evenodd" clip-rule="evenodd" d="M7.29289 13.2929C6.90237 13.6834 6.90237 14.3166 7.29289 14.7071L11.2929 18.7071C11.6834 19.0976 12.3166 19.0976 12.7071 18.7071C13.0976 18.3166 13.0976 17.6834 12.7071 17.2929L9.41421 14L12.7071 10.7071C13.0976 10.3166 13.0976 9.68342 12.7071 9.29289C12.3166 8.90237 11.6834 8.90237 11.2929 9.29289L7.29289 13.2929Z" fill="#373B4E"/>
</g>
</svg>
